<?xml version="1.0" standalone="no"?>
<!DOCTYPE svg PUBLIC "-//W3C//DTD SVG 1.1//EN" "http://www.w3.org/Graphics/SVG/1.1/DTD/svg11.dtd" >
<svg>
<metadata>
Created by FontForge 20120731 at Sat Mar 18 04:46:07 2023
 By www
Copyright (c) 2002, 2005 Parachute :, www.parachute.gr. All rights reserved.
</metadata>
<defs>
<font id="PFDinTextCompW01-ExtraThin" horiz-adv-x="340" >
  <font-face 
    font-family="PFDinTextCompW01-ExtraThin"
    font-weight="250"
    font-stretch="normal"
    units-per-em="1000"
    panose-1="2 0 3 6 2 0 0 2 0 4"
    ascent="800"
    descent="-200"
    x-height="486"
    cap-height="696"
    bbox="-54 -217 805 873"
    underline-thickness="50"
    underline-position="-125"
    unicode-range="U+0020-21B5"
  />
<missing-glyph horiz-adv-x="428" 
d="M0 700h428v-700h-428v700zM408 27v650l-179 -327zM20 29l179 321l-179 322v-643zM384 679h-340l170 -310zM384 21l-170 310l-170 -310h340z" />
    <glyph glyph-name=".notdef" horiz-adv-x="428" 
d="M0 700h428v-700h-428v700zM408 27v650l-179 -327zM20 29l179 321l-179 322v-643zM384 679h-340l170 -310zM384 21l-170 310l-170 -310h340z" />
    <glyph glyph-name="glyph1" horiz-adv-x="0" 
 />
    <glyph glyph-name="nonmarkingreturn" horiz-adv-x="333" 
 />
    <glyph glyph-name="space" unicode=" " horiz-adv-x="160" 
 />
    <glyph glyph-name="exclam" unicode="!" horiz-adv-x="185" 
d="M82 153q-1 64 -1.5 132.5t-0.5 138.5t-0.5 138.5t-1.5 133.5h29q-1 -65 -1.5 -133.5t-0.5 -138.5t-0.5 -138.5t-1.5 -132.5h-21zM76 0v35h34v-35h-34z" />
    <glyph glyph-name="quotedbl" unicode="&#x22;" horiz-adv-x="161" 
d="M98 696h23v-158h-23v158zM40 696h23v-158h-23v158z" />
    <glyph glyph-name="numbersign" unicode="#" 
d="M1 241h60l41 216h-51v20h55l43 225h23l-43 -225h130l43 225h23l-43 -225h57v-20h-61l-41 -216h48v-19h-52l-42 -222h-22l42 222h-131l-42 -222h-22l42 222h-57v19zM84 241h130l41 216h-130z" />
    <glyph glyph-name="dollar" unicode="$" 
d="M322 178q0 -41 -7 -74t-23 -57t-43.5 -38t-67.5 -16v-102h-22v102q-39 1 -66 12.5t-44 31t-25 45t-9 55.5l27 5q0 -24 6.5 -46t20.5 -39t36 -28t54 -12v343q-47 22 -74 41.5t-41.5 39.5t-18.5 42t-4 49q0 36 8 66t24.5 52.5t42.5 35.5t63 15v95h22v-94q41 -2 68.5 -15
t43.5 -32.5t22.5 -44t6.5 -48.5l-26 -6q0 23 -6 44.5t-19.5 38t-35.5 27t-54 12.5v-300l14 -6q46 -20 71.5 -39t38 -41.5t15 -50t2.5 -63.5zM295 177q0 36 -3 60.5t-15 43.5t-34.5 35t-61.5 34v-333q37 2 59.5 16t34.5 35.5t16 49.5t4 59zM48 533q0 -24 4.5 -43.5t16.5 -36
t33.5 -32t56.5 -32.5v288q-35 -2 -56.5 -16.5t-33.5 -35t-16.5 -45t-4.5 -47.5z" />
    <glyph glyph-name="percent" unicode="%" horiz-adv-x="524" 
d="M464 347q0 23 -16 36t-42 13q-27 0 -43 -13t-16 -36v-279q0 -22 16 -35t43 -13q26 0 42 13t16 35v279zM406 -4q-34 0 -59 17.5t-25 54.5v279q0 38 25 55t59 17q33 0 58 -17t25 -55v-279q0 -37 -25 -54.5t-58 -17.5zM175 627q0 23 -16 36t-42 13q-27 0 -43 -13t-16 -36
v-279q0 -22 16 -35t43 -13q26 0 42 13t16 35v279zM117 276q-34 0 -59 17.5t-25 54.5v279q0 38 25 55t59 17q33 0 58 -17t25 -55v-279q0 -37 -25 -54.5t-58 -17.5zM103 -17h-25l314 731h25z" />
    <glyph glyph-name="ampersand" unicode="&#x26;" horiz-adv-x="451" 
d="M215 701q41 0 65.5 -10t43.5 -34l-22 -16q-14 21 -37.5 28.5t-47.5 7.5t-41.5 -10t-29.5 -26t-17.5 -36t-5.5 -39q0 -29 7 -59t28 -66l186 -318q18 38 26 74t11 70h23q-2 -40 -14.5 -85t-30.5 -81l61 -101h-32l-46 78q-21 -27 -40.5 -44t-38.5 -26t-36.5 -12t-34.5 -3
q-30 0 -56.5 9t-46 29t-31 51.5t-11.5 75.5q0 60 28 117t88 106q-7 11 -15 24.5t-14 24.5q-23 41 -30 74t-7 63q0 28 8.5 52.5t24 42.5t37 28.5t48.5 10.5zM176 360q-63 -56 -83.5 -107t-20.5 -95q0 -62 30.5 -102.5t95.5 -40.5q28 0 63 18.5t67 63.5z" />
    <glyph glyph-name="quotesingle" unicode="'" horiz-adv-x="123" 
d="M50 696h23v-158h-23v158z" />
    <glyph glyph-name="parenleft" unicode="(" horiz-adv-x="219" 
d="M179 -118q-25 38 -46 86t-36.5 101.5t-24.5 111t-9 115.5q0 54 8 110.5t22.5 111t35.5 104.5t48 91l11 -5q-46 -91 -73.5 -196.5t-27.5 -209.5q0 -113 28.5 -220t73.5 -195z" />
    <glyph glyph-name="parenright" unicode=")" horiz-adv-x="219" 
d="M63 -113q45 88 73.5 195t28.5 220q0 104 -27.5 209.5t-73.5 196.5l11 5q27 -41 48 -91t35.5 -104.5t22.5 -111t8 -110.5q0 -58 -9 -115.5t-24.5 -111t-36.5 -101.5t-46 -86z" />
    <glyph glyph-name="asterisk" unicode="*" horiz-adv-x="318" 
d="M254 447l-25 -17l-68 111l-66 -111l-25 17l76 102l-118 38l9 30l114 -50l-6 127h31l-7 -127l116 50l9 -30l-118 -38z" />
    <glyph glyph-name="plus" unicode="+" 
d="M180 125h-23v156h-138v24h138v153h23v-153h138v-24h-138v-156z" />
    <glyph glyph-name="comma" unicode="," horiz-adv-x="107" 
d="M48 -82h-18l17 82h-9v36h36v-36z" />
    <glyph glyph-name="hyphen" unicode="-" horiz-adv-x="309" 
d="M49 300h222v-28h-222v28z" />
    <glyph glyph-name="period" unicode="." horiz-adv-x="107" 
d="M36 0v38h36v-38h-36z" />
    <glyph glyph-name="slash" unicode="/" horiz-adv-x="219" 
d="M29 -42h-23l186 767h23z" />
    <glyph glyph-name="zero" unicode="0" 
d="M268 588q0 42 -27.5 66.5t-70.5 24.5q-44 0 -71 -24.5t-27 -66.5v-480q0 -42 27 -66.5t71 -24.5q43 0 70.5 24.5t27.5 66.5v480zM170 -7q-25 0 -47 7t-39 21t-27 35.5t-10 51.5v480q0 29 10 50.5t27 35.5t39 21t47 7t47 -7t39 -21t27 -35.5t10 -50.5v-480
q0 -30 -10 -51.5t-27 -35.5t-39 -21t-47 -7z" />
    <glyph glyph-name="one" unicode="1" 
d="M192 667l-110 -74v30l108 73h27v-695h-25v666z" />
    <glyph glyph-name="two" unicode="2" 
d="M72 24h221v-24h-246v26l197 398q17 35 23 66t6 69q0 23 -4.5 45t-15.5 38.5t-30.5 26.5t-50.5 10q-18 0 -35.5 -5.5t-32 -18.5t-23.5 -34.5t-9 -53.5l-24 4q1 35 11 60t26.5 40.5t39 23t48.5 7.5q67 0 96.5 -39.5t29.5 -103.5q0 -50 -9 -83.5t-27 -69.5z" />
    <glyph glyph-name="three" unicode="3" 
d="M172 702q34 0 57.5 -8.5t38 -25t21 -40t5.5 -52.5v-70q0 -18 -1.5 -40t-8 -42t-20 -35.5t-37.5 -22.5q22 -7 35.5 -21t20.5 -32.5t9 -40t2 -43.5v-109q0 -56 -28.5 -91.5t-96.5 -35.5q-23 0 -44.5 6.5t-38.5 22t-27.5 41t-10.5 63.5l25 5q0 -52 22 -83t75 -31
q44 0 71.5 24t27.5 79v122q0 31 -7.5 52t-19.5 34t-28 18.5t-33 5.5h-25v27h27q17 0 32.5 5.5t27.5 17.5t19 32t7 49v103q0 43 -24 68t-75 25q-52 0 -74.5 -32t-22.5 -79l-25 5q0 60 31 94.5t93 34.5z" />
    <glyph glyph-name="four" unicode="4" 
d="M258 1h-25v126h-205v23l144 546h25l-146 -546h182v196h25v-196h60v-23h-60v-126z" />
    <glyph glyph-name="five" unicode="5" 
d="M273 318q0 54 -28.5 77t-70.5 23q-29 0 -54.5 -12t-34.5 -32h-25v322h233v-21h-210v-268h2q15 16 39.5 25t55.5 9q53 0 85.5 -29t32.5 -83v-209q0 -56 -28.5 -91.5t-96.5 -35.5q-23 0 -44.5 6.5t-38.5 22t-27.5 41t-10.5 63.5l25 5q0 -52 22 -83t75 -31q44 0 71.5 24
t27.5 79v198z" />
    <glyph glyph-name="six" unicode="6" 
d="M47 245q0 27 4 47t11 38l138 366h25l-128 -339h3q11 12 32 21t41 9q24 0 46 -7t38.5 -21t26 -35.5t9.5 -50.5v-164q0 -30 -10 -51.5t-27 -35.5t-39 -21t-47 -7t-47 7t-39 21t-27 35.5t-10 51.5v136zM268 272q0 42 -27.5 66.5t-70.5 24.5q-23 0 -41.5 -9t-31 -24.5
t-19 -35t-6.5 -40.5v-146q0 -42 27 -66.5t71 -24.5q43 0 70.5 24.5t27.5 66.5v164z" />
    <glyph glyph-name="seven" unicode="7" 
d="M64 675v-88h-22v109h258v-21l-192 -675h-25l192 675h-211z" />
    <glyph glyph-name="eight" unicode="8" 
d="M170 -7q-25 0 -47 7t-39 21t-27 35.5t-10 51.5v149q0 39 17.5 64.5t45.5 37.5q-28 12 -45.5 37.5t-17.5 66.5v125q0 29 10 50.5t27 35.5t39 21t47 7t47 -7t39 -21t27 -35.5t10 -50.5v-125q0 -41 -17.5 -66t-45.5 -38q28 -12 45.5 -37.5t17.5 -64.5v-149q0 -30 -10 -51.5
t-27 -35.5t-39 -21t-47 -7zM268 257q0 41 -26.5 65t-71.5 26q-44 0 -71 -24.5t-27 -66.5v-149q0 -42 27 -66.5t71 -24.5q43 0 70.5 24.5t27.5 66.5v149zM268 588q0 42 -27.5 66.5t-70.5 24.5q-44 0 -71 -24.5t-27 -66.5v-125q0 -42 27 -66.5t71 -24.5q43 0 70.5 24.5
t27.5 66.5v125z" />
    <glyph glyph-name="nine" unicode="9" 
d="M293 451q0 -27 -4 -47t-11 -38l-138 -366h-25l128 339h-3q-11 -12 -32 -21t-41 -9q-24 0 -46 7t-38.5 21t-26 35.5t-9.5 50.5v164q0 30 10 51.5t27 35.5t39 21t47 7t47 -7t39 -21t27 -35.5t10 -51.5v-136zM72 424q0 -42 27.5 -66.5t70.5 -24.5q23 0 41.5 9t31 24.5t19 35
t6.5 40.5v146q0 42 -27 66.5t-71 24.5q-43 0 -70.5 -24.5t-27.5 -66.5v-164z" />
    <glyph glyph-name="colon" unicode=":" horiz-adv-x="107" 
d="M37 309v38h36v-38h-36zM37 0v38h36v-38h-36z" />
    <glyph glyph-name="semicolon" unicode=";" horiz-adv-x="107" 
d="M48 -82h-18l17 82h-9v36h36v-36zM37 309v38h36v-38h-36z" />
    <glyph glyph-name="less" unicode="&#x3c;" 
d="M318 108l-299 173v24l299 173v-24l-277 -161l277 -160v-25z" />
    <glyph glyph-name="equal" unicode="=" 
d="M19 368h299v-23h-299v23zM19 228h299v-23h-299v23z" />
    <glyph glyph-name="greater" unicode="&#x3e;" 
d="M20 133l277 160l-277 161v24l299 -173v-24l-299 -173v25z" />
    <glyph glyph-name="question" unicode="?" horiz-adv-x="329" 
d="M163 702q43 0 71 -12.5t44.5 -33.5t23 -49t6.5 -58q0 -27 -2 -46.5t-5.5 -33.5t-8.5 -25t-10 -20q-15 -27 -25.5 -45t-18.5 -30t-13.5 -19.5t-8.5 -13.5q-9 -16 -16 -41t-7 -48v-74h-24v80q0 8 1.5 19.5t4.5 23.5t7 23.5t9 20.5l69 113q16 27 19 56t3 58q0 65 -28.5 98
t-91.5 33q-21 0 -40.5 -7.5t-35 -22t-25.5 -36.5t-11 -52l-25 5q4 62 41 99.5t97 37.5zM165 0v35h34v-35h-34z" />
    <glyph glyph-name="at" unicode="@" horiz-adv-x="732" 
d="M458 262q0 -21 7 -36.5t18 -26.5t25 -16.5t28 -5.5q19 0 41 7.5t40.5 29.5t30.5 63t12 107q0 70 -21 125t-58 93.5t-88 58.5t-110 20q-78 0 -135.5 -27t-95 -73.5t-56 -109.5t-18.5 -136q0 -80 19.5 -144t58.5 -110t96.5 -70.5t133.5 -24.5q38 0 84.5 9t83.5 29l9 -21
q-40 -17 -84.5 -28.5t-87.5 -11.5q-79 0 -141.5 23.5t-106 70t-66.5 116t-23 162.5q0 82 21.5 150t62.5 116.5t102 75t140 26.5q74 0 130.5 -24t95 -66.5t58 -101t19.5 -127.5q0 -71 -14 -115.5t-35.5 -69.5t-47 -34.5t-48.5 -9.5q-6 0 -18.5 2t-26.5 8.5t-27.5 19
t-21.5 33.5q-11 -20 -25 -31t-28 -16t-26.5 -6.5t-20.5 -1.5q-27 0 -45.5 8.5t-30 23t-16.5 33.5t-5 40t5.5 43t19 39t34.5 28t53 11h73v52q0 34 -16 56t-63 22q-28 0 -46 -13t-26 -32l-24 10q11 23 35 40.5t63 17.5q22 0 40.5 -5t32.5 -16t22 -30.5t8 -47.5v-181zM358 367
q-38 0 -62 -23.5t-24 -77.5q0 -15 4 -30t13 -26t24 -18t38 -7q33 0 57 21.5t24 57.5v103h-74z" />
    <glyph glyph-name="A" unicode="A" horiz-adv-x="367" 
d="M289 196h-213l-44 -196h-24l156 696h37l158 -696h-25zM142 493l-61 -274h203l-62 276l-39 178h-2z" />
    <glyph glyph-name="B" unicode="B" horiz-adv-x="408" 
d="M77 674v-295h141q67 0 91.5 38.5t24.5 110.5q0 70 -32 108t-110 38h-115zM77 357v-332h123q43 0 70.5 14t43.5 38t22.5 56t6.5 68q0 74 -30.5 115t-89.5 41h-146zM283 367q25 -9 41.5 -25t26.5 -38t14 -48.5t4 -55.5q0 -56 -12.5 -94t-35 -61.5t-53 -34t-66.5 -10.5h-150
v696h145q46 0 77 -11.5t50 -33t27.5 -52.5t8.5 -70q0 -27 -3 -51.5t-11.5 -45.5t-23.5 -37.5t-39 -26.5v-1z" />
    <glyph glyph-name="C" unicode="C" horiz-adv-x="382" 
d="M197 16q23 0 45.5 7t40 22t28.5 39.5t11 59.5l25 -5q0 -41 -13.5 -69t-35 -45t-48 -24.5t-53.5 -7.5q-69 0 -110 36t-41 111v413q0 75 41 112t110 37q28 0 55 -7.5t48 -25t34 -45t13 -66.5l-25 -6q0 34 -10 58t-27.5 39.5t-40 22.5t-47.5 7q-59 0 -92.5 -33.5
t-33.5 -93.5v-413q0 -61 33.5 -92t92.5 -31z" />
    <glyph glyph-name="D" unicode="D" horiz-adv-x="395" 
d="M328 516q0 33 -5.5 62t-19.5 50.5t-40 33.5t-66 12h-120v-650h121q67 0 98.5 35t31.5 116v341zM195 696q64 0 100 -22.5t50 -73.5q10 -36 10 -100v-151q0 -86 -0.5 -154.5t-10.5 -102.5q-9 -30 -25 -48t-36.5 -27.5t-45 -13t-51.5 -3.5h-135v696h144z" />
    <glyph glyph-name="E" unicode="E" horiz-adv-x="350" 
d="M52 696h276v-23h-251v-302h223v-23h-223v-324h251v-24h-276v696z" />
    <glyph glyph-name="F" unicode="F" horiz-adv-x="346" 
d="M53 696h276v-23h-251v-302h223v-23h-223v-348h-25v696z" />
    <glyph glyph-name="G" unicode="G" horiz-adv-x="385" 
d="M197 -7q-69 0 -110 36t-41 111v413q0 75 41 112t110 37q28 0 55 -7.5t48 -25t34 -45t13 -66.5l-25 -6q0 34 -10 58t-27.5 39.5t-40 22.5t-47.5 7q-59 0 -92.5 -33.5t-33.5 -93.5v-413q0 -61 34 -91.5t93 -30.5q25 0 48 8.5t41 24.5t29 39t11 52v187h-88v25h114v-212
q0 -36 -13 -63.5t-34.5 -46t-49.5 -28.5t-59 -10z" />
    <glyph glyph-name="H" unicode="H" horiz-adv-x="404" 
d="M328 345h-251v-345h-25v696h25v-327h251v327h26v-696h-26v345z" />
    <glyph glyph-name="I" unicode="I" horiz-adv-x="165" 
d="M70 696h25v-696h-25v696z" />
    <glyph glyph-name="J" unicode="J" horiz-adv-x="309" 
d="M239 136q0 -66 -40 -104.5t-117 -38.5q-25 0 -49.5 6t-38.5 15l12 22q17 -11 39 -15t40 -4t40 4t42 17t33.5 37.5t13.5 64.5v556h25v-560z" />
    <glyph glyph-name="K" unicode="K" horiz-adv-x="388" 
d="M78 243l246 453h29l-149 -273l181 -423h-30l-168 394l-111 -203v-191h-25v696h25v-453h2z" />
    <glyph glyph-name="L" unicode="L" horiz-adv-x="329" 
d="M53 696h25v-672h241v-24h-266v696z" />
    <glyph glyph-name="M" unicode="M" horiz-adv-x="516" 
d="M440 624l-170 -464h-27l-165 456h-3v-616h-25v696h26l179 -501h3l183 501h25v-696h-24v624h-2z" />
    <glyph glyph-name="N" unicode="N" horiz-adv-x="422" 
d="M75 627v-627h-25v696h24l271 -627h3v627h24v-696h-24l-271 627h-2z" />
    <glyph glyph-name="O" unicode="O" horiz-adv-x="398" 
d="M328 558q0 60 -37.5 90.5t-91.5 30.5q-56 0 -92.5 -33t-36.5 -93v-416q0 -61 36.5 -91t92.5 -30q62 0 95.5 32t33.5 93v417zM199 -7q-32 0 -60 8.5t-49 26.5t-33 45t-12 65v416q0 37 12 65t33 46.5t49 27.5t60 9t60 -8.5t49 -26t33 -44.5t12 -64v-419q0 -38 -12 -65.5
t-33 -45.5t-49 -27t-60 -9z" />
    <glyph glyph-name="P" unicode="P" horiz-adv-x="382" 
d="M184 696q52 0 86.5 -14.5t54 -40t27.5 -60t8 -75.5q0 -46 -9 -83t-29.5 -63.5t-54.5 -40.5t-84 -14h-106v-304h-25v695h132zM77 674v-347h103q83 0 119.5 42.5t36.5 135.5q0 37 -7.5 68.5t-25.5 53.5t-47.5 34.5t-73.5 12.5h-105z" />
    <glyph glyph-name="Q" unicode="Q" horiz-adv-x="396" 
d="M199 -7q-32 0 -60 8.5t-49 26.5t-33 45t-12 65v416q0 37 12 65t33 46.5t49 27.5t60 9t60 -8.5t49 -26t33 -44.5t12 -64v-419q0 -27 -6.5 -49t-17.5 -39l64 -47l-15 -20l-66 48q-21 -20 -50 -30t-63 -10zM328 558q0 60 -37.5 90.5t-91.5 30.5q-56 0 -92.5 -33t-36.5 -93
v-416q0 -61 36.5 -91t92.5 -30q62 0 94 31l-71 53l15 20l72 -54q19 29 19 75v417z" />
    <glyph glyph-name="R" unicode="R" horiz-adv-x="388" 
d="M179 696q52 0 87 -12.5t55 -36t28.5 -56.5t8.5 -74q0 -75 -27 -122t-90 -62q12 -37 26.5 -80t29.5 -86.5t30 -86.5t27 -80h-29l-108 328q-10 -1 -20 -1.5t-21 -0.5h-99v-326h-25v696h127zM77 674v-326h96q82 0 121.5 38t39.5 130q0 75 -35.5 116.5t-123.5 41.5h-98z" />
    <glyph glyph-name="S" unicode="S" horiz-adv-x="370" 
d="M340 178q0 -42 -7.5 -76t-25 -58.5t-47 -37.5t-73.5 -13q-42 0 -70.5 11t-47 30.5t-27 45.5t-9.5 57l27 5q0 -25 7 -47.5t22 -40t39 -27.5t59 -10q41 0 65.5 13t38 35t18 51t4.5 61q0 37 -3.5 62t-16 44.5t-37 35.5t-67.5 36q-51 23 -80.5 43t-45 41t-20 43.5t-4.5 49.5
q0 37 8.5 68.5t27 54t47 35t68.5 12.5q44 0 73 -12.5t46 -32.5t24 -45t7 -50l-26 -6q0 24 -6.5 46t-21 39t-38.5 27t-59 10q-39 0 -63 -13.5t-37.5 -35t-18 -47t-4.5 -49.5q0 -27 6 -48t22 -39t44.5 -35.5t74.5 -38.5q46 -20 71.5 -39t38 -41.5t15 -50t2.5 -63.5z" />
    <glyph glyph-name="T" unicode="T" horiz-adv-x="319" 
d="M171 0h-25v673h-140v23h304v-23h-139v-673z" />
    <glyph glyph-name="U" unicode="U" horiz-adv-x="380" 
d="M343 695v-555q0 -38 -12 -65.5t-33 -45.5t-49 -27t-60 -9t-60 8.5t-49 26.5t-33 45t-12 65v557h25v-558q0 -61 36.5 -91t92.5 -30q62 0 95.5 32t33.5 93v554h25z" />
    <glyph glyph-name="V" unicode="V" horiz-adv-x="370" 
d="M333 696h25l-158 -696h-37l-156 696h24l110 -493l39 -180h2l39 178z" />
    <glyph glyph-name="W" unicode="W" horiz-adv-x="582" 
d="M290 632l-35 -187l-83 -445h-39l-125 696h24l78 -442l41 -235h2l43 233l83 444h25l84 -451l42 -226h2l39 225l80 452h24l-125 -696h-39l-84 446l-35 186h-2z" />
    <glyph glyph-name="X" unicode="X" horiz-adv-x="332" 
d="M4 0l147 348l-146 346h29l132 -317l130 317h29l-147 -346l148 -348h-29l-131 318l-133 -318h-29z" />
    <glyph glyph-name="Y" unicode="Y" horiz-adv-x="337" 
d="M167 326l131 370h27l-146 -403v-293h-25v293l-146 403h25l132 -370h2z" />
    <glyph glyph-name="Z" unicode="Z" horiz-adv-x="296" 
d="M267 24v-24h-259v23l249 650h-225v23h250v-22l-249 -650h234z" />
    <glyph glyph-name="bracketleft" unicode="[" horiz-adv-x="191" 
d="M62 696h108v-24h-81v-760h81v-23h-108v807z" />
    <glyph glyph-name="backslash" unicode="\" horiz-adv-x="219" 
d="M7 725h23l186 -767h-23z" />
    <glyph glyph-name="bracketright" unicode="]" horiz-adv-x="191" 
d="M170 -111h-108v23h81v760h-81v24h108v-807z" />
    <glyph glyph-name="asciicircum" unicode="^" 
d="M6 395l153 299h24l153 -299h-24l-142 278l-139 -278h-25z" />
    <glyph glyph-name="underscore" unicode="_" horiz-adv-x="500" 
d="M0 -90h500v-24h-500v24z" />
    <glyph glyph-name="grave" unicode="`" horiz-adv-x="334" 
d="M236 556l-84 136l33 13l66 -143z" />
    <glyph glyph-name="a" unicode="a" horiz-adv-x="334" 
d="M166 259q-51 0 -84 -30.5t-33 -102.5q0 -21 5.5 -41t18 -35t33 -24.5t50.5 -9.5q46 0 78.5 25t32.5 75v143h-101zM39 423q15 32 46 52t82 20q61 0 93.5 -27.5t32.5 -99.5v-368h-26v44h-2q-13 -17 -28 -27t-30.5 -15t-31 -6.5t-28.5 -1.5q-34 0 -57.5 11t-38 29.5t-21 43
t-6.5 51.5q0 28 6.5 55.5t22.5 49.5t42.5 35.5t66.5 13.5h105v83q0 23 -4 42.5t-15 33.5t-31 22t-52 8q-39 0 -65.5 -17t-36.5 -42z" />
    <glyph glyph-name="b" unicode="b" horiz-adv-x="337" 
d="M179 16q29 0 56 16t38 57q5 16 6 54.5t1 85.5q0 23 -0.5 50t-1 52t-2.5 45t-5 31q-10 33 -33.5 49t-54.5 16q-27 0 -49 -11.5t-37.5 -30t-23.5 -41.5t-8 -45v-209q0 -53 32 -86t82 -33zM181 -7q-41 0 -69 15.5t-45 41.5h-2v-50h-25v726h25v-301h2q17 32 48.5 51t67.5 19
q51 -2 76 -21.5t36 -48.5q4 -15 6.5 -36t4 -45.5t1.5 -50v-49.5v-21q0 -26 -0.5 -55t-3.5 -61q-3 -33 -15.5 -54.5t-29.5 -35t-37.5 -19t-39.5 -5.5z" />
    <glyph glyph-name="c" unicode="c" horiz-adv-x="327" 
d="M172 495q57 0 91.5 -30.5t34.5 -90.5l-26 -5q0 48 -26 75t-77 27q-28 0 -54.5 -12t-40.5 -46q-8 -19 -9.5 -67t-2.5 -109v-18q0 -18 0.5 -39t1.5 -40.5t3 -36t5 -25.5q10 -29 33.5 -45.5t61.5 -16.5q48 0 75.5 24.5t29.5 77.5l26 -5q-2 -61 -37 -90.5t-92 -29.5
q-30 0 -51.5 7t-36.5 19t-24 27t-13 31q-3 12 -5 31.5t-3 41.5t-1 45v43q0 27 0.5 54.5t2 52t4 44t6.5 31.5q12 33 42 54t82 21z" />
    <glyph glyph-name="d" unicode="d" horiz-adv-x="337" 
d="M161 16q50 0 82 33t32 86v205q0 24 -7 47.5t-21 42t-34.5 30t-47.5 11.5q-33 0 -59 -18.5t-36 -51.5q-3 -11 -4.5 -30t-2.5 -43t-1 -50v-49q0 -47 1 -85.5t6 -54.5q11 -41 34.5 -57t57.5 -16zM159 -7q-21 0 -41.5 5.5t-37 19t-28 35t-14.5 54.5q-3 32 -3 61v55v21
q0 57 0.5 102t11.5 74q10 29 37.5 52t81.5 23q26 0 44 -7t30.5 -17t20 -21t12.5 -19h2v295h25v-726h-25v50h-2q-17 -26 -45 -41.5t-69 -15.5z" />
    <glyph glyph-name="e" unicode="e" horiz-adv-x="334" 
d="M171 495q59 0 93 -31.5t34 -91.5v-127h-237v-26q0 -18 0.5 -39t1.5 -40.5t3 -36t5 -25.5q8 -25 30.5 -43.5t63.5 -18.5q26 0 45.5 8t32 21.5t19.5 31t9 37.5l24 -5q-5 -56 -41 -86t-86 -30q-30 0 -51.5 7t-36.5 19t-24 27t-13 31q-3 12 -5 31.5t-3 41.5t-1 45v43
q0 27 0.5 55t2 53t4.5 45t7 32q12 33 41.5 52.5t81.5 19.5zM73 414q-8 -20 -9.5 -57.5t-2.5 -88.5h211v103q0 43 -24 71.5t-78 28.5q-28 0 -55.5 -11.5t-41.5 -45.5z" />
    <glyph glyph-name="f" unicode="f" horiz-adv-x="173" 
d="M94 0h-25v465h-57v22h57v129q0 61 29.5 85.5t73.5 24.5h14v-22h-14q-44 0 -61 -23.5t-17 -59.5v-134h86v-22h-86v-465z" />
    <glyph glyph-name="g" unicode="g" horiz-adv-x="349" 
d="M163 495q41 0 69 -15.5t45 -41.5h2v50h25v-558q0 -34 -10.5 -59t-28.5 -41.5t-42 -24.5t-51 -8q-52 0 -87.5 29.5t-37.5 90.5l26 5q0 -48 26.5 -75t74.5 -27t76.5 29.5t28.5 78.5v135h-2q-17 -32 -48.5 -51t-67.5 -19q-51 2 -76 21.5t-36 48.5q-5 15 -7 36t-3.5 45.5
t-1.5 50v49.5v21q0 26 0.5 55t3.5 61q3 33 15.5 54.5t29.5 35t37.5 19t39.5 5.5zM165 472q-29 0 -56 -16t-38 -57q-5 -16 -6 -54.5t-1 -85.5q0 -23 0.5 -50t1 -52t2.5 -45.5t5 -30.5q10 -33 33.5 -49t54.5 -16q27 0 49 11.5t37.5 30t23.5 41.5t8 45v209q0 53 -32 86t-82 33z
" />
    <glyph glyph-name="h" unicode="h" horiz-adv-x="353" 
d="M71 430q17 31 47.5 48t65.5 17q37 0 61.5 -11t38 -29t19 -42.5t5.5 -51.5v-361h-26v351q0 24 -4 46t-15 38t-30.5 25.5t-49.5 9.5q-28 0 -49 -11.5t-35.5 -29.5t-21.5 -41t-7 -46v-342h-25v727h25v-297h1z" />
    <glyph glyph-name="i" unicode="i" horiz-adv-x="147" 
d="M60 487h25v-487h-25v487zM59 636h28v-32h-28v32z" />
    <glyph glyph-name="j" unicode="j" horiz-adv-x="135" 
d="M58 487h25v-595q0 -55 -24.5 -75.5t-68.5 -20.5h-4v22h4q43 0 55.5 21t12.5 62v586zM58 636h28v-32h-28v32z" />
    <glyph glyph-name="k" unicode="k" horiz-adv-x="332" 
d="M67 173l202 313h29l-114 -175l143 -311h-29l-130 286l-101 -155v-131h-25v727h25v-554z" />
    <glyph glyph-name="l" unicode="l" horiz-adv-x="148" 
d="M73 108q0 -41 14.5 -67t55.5 -26h12v-22h-14q-44 0 -68.5 23.5t-24.5 82.5v627h25v-618z" />
    <glyph glyph-name="m" unicode="m" horiz-adv-x="572" 
d="M293 418q17 39 49 58t66 19q36 0 59 -11t36.5 -29t19 -42.5t5.5 -51.5v-361h-25v351q0 56 -21 87.5t-75 31.5q-28 0 -48 -11.5t-33.5 -29.5t-20 -41t-6.5 -46v-342h-25v351q0 56 -21 87.5t-75 31.5q-28 0 -48 -11.5t-33.5 -29.5t-20 -41t-6.5 -46v-342h-25v487h25v-57h2
q17 31 44.5 48t62.5 17q52 0 78 -21.5t35 -55.5h1z" />
    <glyph glyph-name="n" unicode="n" horiz-adv-x="353" 
d="M72 430q17 31 47 48t65 17q37 0 61.5 -11t38 -29t19 -42.5t5.5 -51.5v-361h-26v351q0 24 -4 46t-15 38t-30.5 25.5t-49.5 9.5q-28 0 -49 -11.5t-35.5 -29.5t-21.5 -41t-7 -46v-342h-25v487h25v-57h2z" />
    <glyph glyph-name="o" unicode="o" horiz-adv-x="343" 
d="M172 495q55 0 82 -21t39 -51q4 -15 6.5 -36t4 -45t1.5 -49v-49v-21q0 -26 -0.5 -54t-3.5 -60q-3 -33 -15.5 -55t-30.5 -35.5t-39.5 -19.5t-43.5 -6q-60 0 -89 22.5t-40 61.5q-3 12 -4.5 31t-2.5 41t-1 45.5v43.5q0 27 0.5 55t1.5 53t3.5 45t6.5 32q12 33 42.5 52.5
t82.5 19.5zM171 471q-14 0 -28.5 -2.5t-27.5 -8.5t-24 -17t-18 -28q-9 -23 -10 -70t-2 -108v-18q0 -56 2 -89.5t8 -52.5q10 -29 34 -45t66 -16q34 0 62 17t39 55q5 16 6.5 55t1.5 86q0 23 -0.5 50t-1.5 52t-3 45t-5 31q-10 33 -37 48.5t-62 15.5z" />
    <glyph glyph-name="p" unicode="p" horiz-adv-x="342" 
d="M178 470q-50 0 -82 -33t-32 -86v-205q0 -24 7 -47.5t21 -42t34.5 -30t47.5 -11.5q33 0 59 18.5t36 51.5q3 10 4.5 29.5t2.5 43.5t1 50v49q0 47 -1 85.5t-6 54.5q-11 41 -34.5 57t-57.5 16zM180 493q21 0 41.5 -5.5t37 -19t28 -35t14.5 -54.5q3 -32 3 -61v-55v-21
q0 -57 -0.5 -102t-11.5 -74q-5 -15 -14.5 -28.5t-23.5 -24t-34 -16.5t-47 -6q-26 0 -44 7t-30.5 17t-20 21t-12.5 19h-2v-251h-25v682h25v-50h2q17 26 45 41.5t69 15.5z" />
    <glyph glyph-name="q" unicode="q" horiz-adv-x="349" 
d="M165 472q-29 0 -56 -16t-38 -57q-5 -16 -6 -54.5t-1 -85.5q0 -23 0.5 -50t1 -52t2.5 -45.5t5 -30.5q10 -33 33.5 -49t54.5 -16q27 0 49 11.5t37.5 30t23.5 41.5t8 45v209q0 53 -32 86t-82 33zM163 495q41 0 69 -15.5t45 -41.5h2v50h25v-685h-25v260h-2q-17 -32 -48.5 -51
t-67.5 -19q-51 2 -76 21.5t-36 48.5q-5 15 -7 36t-3.5 45.5t-1.5 50v49.5v21q0 26 0.5 55t3.5 61q3 33 15.5 54.5t29.5 35t37.5 19t39.5 5.5z" />
    <glyph glyph-name="r" unicode="r" horiz-adv-x="223" 
d="M220 466q-6 2 -12.5 2h-11.5q-54 0 -83.5 -41t-29.5 -109v-318h-25v487h25v-72h3q14 39 42 59.5t66 20.5h13t13 -2v-27z" />
    <glyph glyph-name="s" unicode="s" horiz-adv-x="314" 
d="M154 -7q-60 0 -95 29.5t-37 90.5l26 5q0 -48 28.5 -75.5t78.5 -26.5q58 0 81 30t23 77q0 24 -3.5 41.5t-15 31t-31.5 25.5t-53 24q-40 15 -64.5 30t-38 30.5t-18.5 32.5t-5 36q0 53 31 87t99 34q57 0 93 -30.5t36 -90.5l-26 -5q0 48 -28.5 75t-76.5 27q-30 0 -49 -8.5
t-30.5 -22t-16 -31t-4.5 -35.5t4.5 -32t17 -27t35.5 -25t59 -25q38 -14 60.5 -29t34 -32t14.5 -36.5t3 -43.5q0 -28 -7 -52t-22.5 -41.5t-40.5 -27.5t-62 -10z" />
    <glyph glyph-name="t" unicode="t" horiz-adv-x="213" 
d="M22 487h58v140h25v-140h79v-22h-79v-359q0 -36 17 -60t61 -24h9v-22h-9q-22 0 -40.5 6t-32.5 19t-22 34t-8 52v354h-58v22z" />
    <glyph glyph-name="u" unicode="u" horiz-adv-x="353" 
d="M282 57q-17 -31 -47 -48t-65 -17q-38 0 -62 11t-37.5 29t-19 42.5t-5.5 51.5v361h26v-351q0 -24 4 -46t15 -38t30.5 -25.5t49.5 -9.5q28 0 49 11.5t35 29.5t21.5 41t7.5 46v342h25v-487h-25v57h-2z" />
    <glyph glyph-name="v" unicode="v" horiz-adv-x="296" 
d="M134 1l-129 486h26l116 -438h2l113 438h27l-129 -486h-26z" />
    <glyph glyph-name="w" unicode="w" horiz-adv-x="512" 
d="M258 436l-103 -435h-27l-117 486h26l104 -439h2l103 439h27l103 -439h2l104 439h26l-117 -486h-27l-104 435h-2z" />
    <glyph glyph-name="x" unicode="x" horiz-adv-x="277" 
d="M138 232l-104 -232h-28l113 250l-105 236h28l96 -219l99 219h28l-109 -236l116 -250h-29z" />
    <glyph glyph-name="y" unicode="y" horiz-adv-x="304" 
d="M151 46l122 441h26l-166 -595q-10 -39 -34.5 -66t-68.5 -27h-7v23h7q33 0 52.5 23.5t29.5 63.5l24 96l-129 482h27l115 -441h2z" />
    <glyph glyph-name="z" unicode="z" horiz-adv-x="269" 
d="M10 22l221 442h-198v22h226v-21l-221 -443h214v-22h-242v22z" />
    <glyph glyph-name="braceleft" unicode="{" horiz-adv-x="204" 
d="M98 128q0 35 -1.5 62t-7.5 46t-18.5 31.5t-34.5 19.5v13q24 7 36.5 24.5t18.5 40t7 48t1 48.5v135q0 45 18.5 72.5t54.5 27.5h16v-16h-11q-20 0 -32 -10t-18 -24.5t-7.5 -31.5t-1.5 -32v-139q0 -60 -15.5 -99.5t-41.5 -48.5v-1q31 -10 44 -47t13 -93v-152q0 -14 1.5 -31
t7.5 -31.5t18 -24.5t32 -10h11v-17h-16q-36 0 -55 27.5t-19 72.5v140v0z" />
    <glyph glyph-name="bar" unicode="|" horiz-adv-x="159" 
d="M73 716h19v-878h-19v878z" />
    <glyph glyph-name="braceright" unicode="}" horiz-adv-x="204" 
d="M126 -12q0 -45 -19 -72.5t-55 -27.5h-16v17h11q20 0 32 10t18 24.5t7.5 31.5t1.5 31v152q0 56 13 93t44 47v1q-26 9 -41.5 48.5t-15.5 99.5v139q0 15 -1.5 32t-7.5 31.5t-18 24.5t-32 10h-11v16h16q36 0 54.5 -27.5t18.5 -72.5v-135q0 -23 1 -48.5t7 -48t18.5 -40
t36.5 -24.5v-13q-22 -7 -34.5 -19.5t-18.5 -31.5t-7.5 -46t-1.5 -62v-140z" />
    <glyph glyph-name="asciitilde" unicode="~" 
d="M250 205q-19 0 -38.5 7t-39 15.5t-39.5 15.5t-40 7q-17 0 -32.5 -6.5t-29.5 -23.5l-13 14q27 39 76 39q22 0 43 -7t40.5 -16t37.5 -16t34 -7q17 0 33 5.5t33 28.5l15 -12q-27 -44 -80 -44z" />
    <glyph glyph-name="uni00A0" unicode="&#xa0;" horiz-adv-x="160" 
 />
    <glyph glyph-name="exclamdown" unicode="&#xa1;" horiz-adv-x="185" 
d="M103 334q1 -64 1.5 -132.5t0.5 -138.5t0.5 -139t1.5 -133h-29q1 64 1.5 133t0.5 139t0.5 138.5t1.5 132.5h21zM110 487v-35h-34v35h34z" />
    <glyph glyph-name="cent" unicode="&#xa2;" 
d="M176 495q54 -2 87.5 -32t33.5 -89l-26 -5q0 46 -24 73t-71 29v-455q43 2 68.5 26.5t26.5 75.5l26 -5q-2 -59 -35 -88.5t-86 -31.5v-107h-19v107q-54 3 -80 28t-34 56q-3 12 -5 31.5t-3 41.5t-1 45v43q0 27 0.5 54.5t2 52t4 44t6.5 31.5q11 31 37.5 51t72.5 23v115h19
v-114zM71 78q9 -28 30.5 -44t55.5 -18v455q-26 -2 -48.5 -15t-35.5 -43q-6 -16 -9 -65.5t-3 -110.5v-18q0 -18 0.5 -39t1.5 -40.5t3 -36t5 -25.5z" />
    <glyph glyph-name="sterling" unicode="&#xa3;" 
d="M182 703q28 0 53.5 -7.5t45 -25t31 -45t11.5 -66.5l-25 -6q0 68 -33 97.5t-83 29.5q-54 0 -83 -31t-29 -82q0 -27 5 -52t12 -50t14.5 -51.5t12.5 -56.5h113v-23h-110q3 -23 3 -46q0 -83 -16 -144t-45 -120h253v-24h-282v24q32 58 48.5 127t16.5 141q0 10 -1 20.5t-3 21.5
h-65v23h62q-6 28 -13.5 57.5t-14.5 57t-12 51.5t-5 41q0 63 36.5 101t102.5 38z" />
    <glyph glyph-name="currency" unicode="&#xa4;" horiz-adv-x="493" 
d="M86 324q0 30 10 57t28 48l-52 52l17 17l52 -52q21 19 48 29.5t58 10.5q30 0 57 -10.5t48 -28.5l51 51l17 -18l-50 -50q18 -22 28.5 -49t10.5 -57t-10.5 -57t-28.5 -48l51 -52l-18 -18l-51 52q-21 -18 -48 -28t-57 -10q-61 0 -105 38l-53 -53l-18 18l53 53q-38 44 -38 105
zM112 324q0 -28 11 -53t29.5 -43.5t43.5 -29.5t53 -11t53 11t43.5 29.5t29.5 43.5t11 53t-11 53t-29.5 43.5t-43.5 29.5t-53 11t-53 -11t-43.5 -29.5t-29.5 -43.5t-11 -53z" />
    <glyph glyph-name="yen" unicode="&#xa5;" 
d="M153 306l-131 390h25l122 -369h2l121 369h27l-132 -390h120v-21h-124v-79h124v-21h-124v-185h-25v185h-115v21h115v79h-115v21h110z" />
    <glyph glyph-name="brokenbar" unicode="&#xa6;" horiz-adv-x="159" 
d="M73 308v408h19v-408h-19zM92 245v-407h-19v407h19z" />
    <glyph glyph-name="section" unicode="&#xa7;" horiz-adv-x="405" 
d="M357 289q0 -34 -23.5 -66t-61.5 -58q33 -31 46 -58t13 -53q0 -31 -11.5 -55.5t-32 -41.5t-48.5 -26t-61 -9q-28 0 -58.5 9.5t-58.5 27.5l13 19q24 -16 49 -25t54 -9q60 0 94.5 30t34.5 75q0 41 -30.5 77t-106.5 80q-58 34 -87.5 67.5t-29.5 72.5q0 45 24 74.5t60 49.5
q-35 26 -47.5 51.5t-12.5 53.5q0 54 34.5 90.5t96.5 36.5q35 0 62 -8t57 -30l-19 -20q-23 18 -45 26.5t-55 8.5q-26 0 -45 -9t-32.5 -23.5t-20 -33t-6.5 -37.5q0 -22 8.5 -38.5t24 -30.5t36.5 -26.5t46 -27.5q29 -17 54.5 -34.5t44 -37t29.5 -42.5t11 -50zM333 287
q0 49 -44.5 87.5t-125.5 81.5q-16 -7 -31.5 -17t-28 -23.5t-20 -30.5t-7.5 -38q0 -23 11.5 -42t30 -35t40.5 -29.5t43 -25.5q14 -8 28 -16.5t25 -16.5q15 8 29 20t25 26t18 29.5t7 29.5z" />
    <glyph glyph-name="dieresis" unicode="&#xa8;" horiz-adv-x="333" 
d="M79 615h28v-32h-28v32zM221 615h28v-32h-28v32z" />
    <glyph glyph-name="copyright" unicode="&#xa9;" horiz-adv-x="703" 
d="M467 236q0 -24 -8.5 -42.5t-23 -31.5t-33.5 -20t-40 -7t-40 6t-34 19t-23.5 32.5t-8.5 45.5v192q0 52 31 79t75 27q42 0 73.5 -25.5t31.5 -77.5l-24 -4q0 40 -23 61.5t-59 21.5t-58 -22t-22 -56v-198q0 -34 22.5 -55.5t57.5 -21.5q36 0 58 21.5t22 58.5zM363 -8
q-74 0 -130 26.5t-94 73.5t-57.5 110.5t-19.5 138.5t19.5 139t57.5 111.5t94 74t130 26.5q73 0 129 -26.5t94 -74t58 -111.5t20 -139t-20 -138.5t-58 -110.5t-94 -73.5t-129 -26.5zM363 669q-69 0 -120.5 -26t-86 -70.5t-52 -104t-17.5 -127.5q0 -72 19 -131.5t54.5 -103
t86.5 -67.5t116 -24q66 0 117.5 24.5t86.5 68t53.5 103t18.5 130.5t-18.5 131t-53.5 104t-86.5 68.5t-117.5 24.5z" />
    <glyph glyph-name="ordfeminine" unicode="&#xaa;" horiz-adv-x="230" 
d="M115 445q-34 0 -55 -17.5t-21 -62.5q0 -26 15.5 -46t53.5 -20q30 0 50.5 15t20.5 44v87h-64zM20 552q13 24 35.5 39.5t60.5 15.5q43 0 66.5 -19t23.5 -67v-241h-27v23q-17 -20 -38.5 -23.5t-39.5 -3.5q-48 0 -68 27.5t-20 63.5q0 19 5 37.5t16.5 33t30 23.5t46.5 9h68v49
q0 28 -12.5 46t-53.5 18q-24 0 -41.5 -12.5t-24.5 -29.5z" />
    <glyph glyph-name="guillemotleft" unicode="&#xab;" horiz-adv-x="291" 
d="M141 46l-107 186l107 186h27l-106 -186l106 -186h-27zM245 46l-107 186l107 186h27l-106 -186l106 -186h-27z" />
    <glyph glyph-name="logicalnot" unicode="&#xac;" 
d="M318 125h-23v156h-276v24h299v-180z" />
    <glyph glyph-name="uni00AD" unicode="&#xad;" horiz-adv-x="309" 
d="M49 300h222v-28h-222v28z" />
    <glyph glyph-name="registered" unicode="&#xae;" horiz-adv-x="486" 
d="M292 363l-40 112h-41v-112h-24v257h57q34 0 53.5 -18.5t19.5 -56.5q0 -20 -9 -39t-32 -30q11 -27 22 -56.5t21 -56.5h-27zM292 545q0 24 -12 38t-38 14h-31v-103h34q27 0 37 14t10 37zM248 276q-45 0 -80.5 16.5t-59.5 45.5t-37 68.5t-13 85.5q0 47 12 87t36 69
t59.5 45.5t82.5 16.5q45 0 79.5 -16.5t58 -45.5t36 -69t12.5 -87q0 -46 -12.5 -85.5t-36.5 -68.5t-58.5 -45.5t-78.5 -16.5zM248 689q-41 0 -72.5 -15t-52.5 -41.5t-31.5 -62t-10.5 -76.5q0 -42 11.5 -78t33 -62t52.5 -40.5t70 -14.5q40 0 70.5 15.5t51 42t30.5 62t10 75.5
q0 41 -11 76.5t-32 62t-51 41.5t-68 15z" />
    <glyph glyph-name="macron" unicode="&#xaf;" horiz-adv-x="334" 
d="M77 614h191v-24h-191v24z" />
    <glyph glyph-name="degree" unicode="&#xb0;" horiz-adv-x="281" 
d="M146 670q-27 0 -46 -19t-19 -47q0 -29 19 -47.5t46 -18.5q28 0 46.5 18.5t18.5 47.5q0 28 -18.5 47t-46.5 19zM146 692q37 0 62 -25.5t25 -62.5q0 -38 -25 -63t-62 -25q-36 0 -61.5 25t-25.5 63q0 37 25.5 62.5t61.5 25.5z" />
    <glyph glyph-name="plusminus" unicode="&#xb1;" 
d="M180 125h-23v156h-138v24h138v153h23v-153h138v-24h-138v-156zM19 61v24h299v-24h-299z" />
    <glyph glyph-name="uni00B2" unicode="&#xb2;" horiz-adv-x="221" 
d="M56 394h139v-24h-169v23l127 232q11 20 15.5 37.5t4.5 38.5q0 25 -13.5 45t-48.5 20q-22 0 -40 -15t-18 -46l-27 4q0 36 25 58t61 22q46 0 67.5 -24t21.5 -64q0 -29 -7 -49t-19 -42z" />
    <glyph glyph-name="uni00B3" unicode="&#xb3;" horiz-adv-x="221" 
d="M112 789q24 0 39.5 -6.5t25 -18.5t13.5 -28t4 -35v-31q0 -11 -0.5 -22.5t-3.5 -23t-9.5 -21t-18.5 -15.5q20 -11 26 -30t6 -41v-65q0 -14 -4 -29.5t-13.5 -28t-26.5 -20.5t-43 -8q-15 0 -30 4.5t-26 14.5t-18 26t-7 39l27 3q0 -28 12.5 -46t43.5 -18q33 0 45.5 20
t12.5 43v64q0 32 -15 45.5t-35 13.5h-22v26h23q20 0 34.5 12.5t14.5 43.5v49q0 24 -12.5 42t-44.5 18q-29 0 -43 -18t-14 -43l-26 5q2 34 22.5 56.5t62.5 22.5z" />
    <glyph glyph-name="acute" unicode="&#xb4;" horiz-adv-x="334" 
d="M151 562l66 143l33 -13l-84 -136z" />
    <glyph glyph-name="mu" unicode="&#xb5;" horiz-adv-x="353" 
d="M71 -199h-25v686h26v-351q0 -24 4 -46t15 -38t30.5 -25.5t49.5 -9.5q28 0 49 11.5t35 29.5t21.5 41t7.5 46v342h25v-487h-25v57h-2q-17 -31 -47 -48t-65 -17q-38 0 -61.5 10.5t-37.5 28.5v-230z" />
    <glyph glyph-name="mu" unicode="&#x3bc;" horiz-adv-x="353" 
d="M71 -199h-25v686h26v-351q0 -24 4 -46t15 -38t30.5 -25.5t49.5 -9.5q28 0 49 11.5t35 29.5t21.5 41t7.5 46v342h25v-487h-25v57h-2q-17 -31 -47 -48t-65 -17q-38 0 -61.5 10.5t-37.5 28.5v-230z" />
    <glyph glyph-name="paragraph" unicode="&#xb6;" horiz-adv-x="407" 
d="M226 703v-784h-32v458q-72 0 -116.5 45.5t-44.5 135.5q0 36 7.5 68t26 56t49.5 38t78 14h183v-31h-52v-784h-32v784h-67z" />
    <glyph glyph-name="periodcentered" unicode="&#xb7;" horiz-adv-x="107" 
d="M36 239v40h38v-40h-38z" />
    <glyph glyph-name="cedilla" unicode="&#xb8;" horiz-adv-x="431" 
d="M195 3l-18 -70q24 -2 39.5 -9t24.5 -17.5t13 -22t4 -21.5q0 -26 -18 -48t-56 -22q-19 0 -35.5 3t-36.5 13l9 19q16 -8 31 -10.5t27 -2.5q24 0 39 12t15 35q0 20 -16.5 34.5t-49.5 16.5l-16 11l22 81z" />
    <glyph glyph-name="uni00B9" unicode="&#xb9;" horiz-adv-x="180" 
d="M110 755l-71 -44v30l74 44h20v-415h-23v385z" />
    <glyph glyph-name="ordmasculine" unicode="&#xba;" horiz-adv-x="237" 
d="M119 607q38 0 57.5 -14t27.5 -34q8 -21 9 -54t1 -64v-15q0 -29 -3 -72q-2 -22 -10.5 -37t-21.5 -24.5t-28.5 -13.5t-31.5 -4q-43 0 -63.5 15.5t-28.5 41.5q-2 8 -3.5 20.5t-2 27t-0.5 29.5v28q0 34 1 67t8 51q8 22 31 37t58 15zM118 582q-19 0 -36 -6.5t-26 -26.5
q-6 -15 -7.5 -43t-1.5 -66v-10q0 -35 1.5 -59.5t5.5 -35.5q6 -17 20.5 -26.5t43.5 -9.5q21 0 39 9.5t25 31.5q4 11 5 37t1 54q0 15 -0.5 32t-1.5 32.5t-2.5 28.5t-3.5 20q-6 20 -22.5 29t-39.5 9z" />
    <glyph glyph-name="guillemotright" unicode="&#xbb;" horiz-adv-x="291" 
d="M138 46l106 186l-106 186h27l107 -186l-107 -186h-27zM34 46l106 186l-106 186h27l107 -186l-107 -186h-27z" />
    <glyph glyph-name="onequarter" unicode="&#xbc;" horiz-adv-x="530" 
d="M116 665l-71 -44v30l74 44h20v-415h-23v385zM112 -17h-25l314 731h25zM446 0h-23v73h-133v21l94 321h26l-94 -317h107v113h23v-113h39v-25h-39v-73z" />
    <glyph glyph-name="onehalf" unicode="&#xbd;" horiz-adv-x="530" 
d="M123 665l-71 -44v30l74 44h20v-415h-23v385zM98 -17h-25l314 731h25zM332 24h139v-24h-169v23l127 232q11 20 15.5 37.5t4.5 38.5q0 25 -13.5 45t-48.5 20q-22 0 -40 -15t-18 -46l-27 4q0 36 25 58t61 22q46 0 67.5 -24t21.5 -64q0 -29 -7 -49t-19 -42z" />
    <glyph glyph-name="threequarters" unicode="&#xbe;" horiz-adv-x="530" 
d="M115 699q24 0 39.5 -6.5t25 -18.5t13.5 -28t4 -35v-31q0 -11 -0.5 -22.5t-3.5 -23t-9.5 -21t-18.5 -15.5q20 -11 26 -30t6 -41v-65q0 -14 -4 -29.5t-13.5 -28t-26.5 -20.5t-43 -8q-15 0 -30 4.5t-26 14.5t-18 26t-7 39l27 3q0 -28 12.5 -46t43.5 -18q33 0 45.5 20
t12.5 43v64q0 32 -15 45.5t-35 13.5h-22v26h23q20 0 34.5 12.5t14.5 43.5v49q0 24 -12.5 42t-44.5 18q-29 0 -43 -18t-14 -43l-26 5q2 34 22.5 56.5t62.5 22.5zM134 -17h-25l314 731h25zM461 0h-23v73h-133v21l94 321h26l-94 -317h107v113h23v-113h39v-25h-39v-73z" />
    <glyph glyph-name="questiondown" unicode="&#xbf;" horiz-adv-x="329" 
d="M191 -217q-43 0 -71 12.5t-44.5 33.5t-23 49t-6.5 58q0 27 2 46.5t5.5 33.5t8.5 25t10 20q15 27 25.5 45t18.5 30t13.5 19.5t8.5 13.5q9 16 16 41t7 48v74h24v-80q0 -8 -1.5 -19.5t-4.5 -23.5t-7 -23.5t-9 -20.5l-69 -113q-16 -27 -19 -56t-3 -58q0 -65 28.5 -98
t91.5 -33q21 0 40.5 7.5t35 22t25 36.5t11.5 52l25 -5q-4 -62 -41 -99.5t-97 -37.5zM189 485v-35h-34v35h34z" />
    <glyph glyph-name="Agrave" unicode="&#xc0;" horiz-adv-x="367" 
d="M289 196h-213l-44 -196h-24l156 696h37l158 -696h-25zM142 493l-61 -274h203l-62 276l-39 178h-2zM178 733l-134 88l25 26l120 -102z" />
    <glyph glyph-name="Aacute" unicode="&#xc1;" horiz-adv-x="367" 
d="M289 196h-213l-44 -196h-24l156 696h37l158 -696h-25zM142 493l-61 -274h203l-62 276l-39 178h-2zM169 745l120 102l25 -26l-134 -88z" />
    <glyph glyph-name="Acircumflex" unicode="&#xc2;" horiz-adv-x="367" 
d="M289 196h-213l-44 -196h-24l156 696h37l158 -696h-25zM142 493l-61 -274h203l-62 276l-39 178h-2zM183 816l-107 -78l-11 10l107 94h24l104 -92l-12 -11z" />
    <glyph glyph-name="Atilde" unicode="&#xc3;" horiz-adv-x="367" 
d="M289 196h-213l-44 -196h-24l156 696h37l158 -696h-25zM142 493l-61 -274h203l-62 276l-39 178h-2zM236 741q-15 0 -29.5 6t-29 13t-28 13t-27.5 6q-12 0 -24 -9.5t-22 -24.5l-16 10q25 47 63 47q16 0 30 -6t27.5 -12.5t28 -12.5t30.5 -6q32 0 50 38l16 -7
q-9 -30 -29 -42.5t-40 -12.5z" />
    <glyph glyph-name="Adieresis" unicode="&#xc4;" horiz-adv-x="367" 
d="M289 196h-213l-44 -196h-24l156 696h37l158 -696h-25zM142 493l-61 -274h203l-62 276l-39 178h-2zM97 773h28v-32h-28v32zM239 773h28v-32h-28v32z" />
    <glyph glyph-name="Aring" unicode="&#xc5;" horiz-adv-x="367" 
d="M289 196h-213l-44 -196h-24l156 696h37l158 -696h-25zM142 493l-61 -274h203l-62 276l-39 178h-2zM181 718q-30 0 -52 22.5t-22 54.5q0 34 22 56t52 22q32 0 54 -22t22 -56q0 -32 -22 -54.5t-54 -22.5zM181 854q-22 0 -38.5 -17t-16.5 -42q0 -23 16.5 -40.5t38.5 -17.5
q23 0 40 17.5t17 40.5q0 25 -17 42t-40 17z" />
    <glyph glyph-name="AE" unicode="&#xc6;" horiz-adv-x="622" 
d="M332 196h-213l-88 -196h-27l310 696h294v-23h-251v-302h223v-23h-223v-324h251v-24h-276v196zM130 219h202v452h-2z" />
    <glyph glyph-name="Ccedilla" unicode="&#xc7;" horiz-adv-x="382" 
d="M197 16q23 0 45.5 7t40 22t28.5 39.5t11 59.5l25 -5q0 -38 -11.5 -64.5t-30.5 -44t-43 -26t-49 -10.5l-15 -61q24 -2 39.5 -9t24.5 -17.5t13 -22t4 -21.5q0 -26 -18 -48t-56 -22q-19 0 -35.5 3t-36.5 13l9 19q16 -8 31 -10.5t27 -2.5q24 0 39 12t15 35q0 20 -16.5 34.5
t-49.5 16.5l-16 11l18 69q-66 2 -105 37.5t-39 109.5v413q0 75 41 112t110 37q28 0 55 -7.5t48 -25t34 -45t13 -66.5l-25 -6q0 34 -10 58t-27.5 39.5t-40 22.5t-47.5 7q-59 0 -92.5 -33.5t-33.5 -93.5v-413q0 -61 33.5 -92t92.5 -31z" />
    <glyph glyph-name="Egrave" unicode="&#xc8;" horiz-adv-x="350" 
d="M52 696h276v-23h-251v-302h223v-23h-223v-324h251v-24h-276v696zM198 733l-134 88l25 26l120 -102z" />
    <glyph glyph-name="Eacute" unicode="&#xc9;" horiz-adv-x="350" 
d="M52 696h276v-23h-251v-302h223v-23h-223v-324h251v-24h-276v696zM133 745l120 102l25 -26l-134 -88z" />
    <glyph glyph-name="Ecircumflex" unicode="&#xca;" horiz-adv-x="350" 
d="M52 696h276v-23h-251v-302h223v-23h-223v-324h251v-24h-276v696zM183 816l-107 -78l-11 10l107 94h24l104 -92l-12 -11z" />
    <glyph glyph-name="Edieresis" unicode="&#xcb;" horiz-adv-x="350" 
d="M52 696h276v-23h-251v-302h223v-23h-223v-324h251v-24h-276v696zM90 773h28v-32h-28v32zM232 773h28v-32h-28v32z" />
    <glyph glyph-name="Igrave" unicode="&#xcc;" horiz-adv-x="165" 
d="M70 696h25v-696h-25v696zM80 733l-134 88l25 26l120 -102z" />
    <glyph glyph-name="Iacute" unicode="&#xcd;" horiz-adv-x="165" 
d="M70 696h25v-696h-25v696zM72 745l120 102l25 -26l-134 -88z" />
    <glyph glyph-name="Icircumflex" unicode="&#xce;" horiz-adv-x="165" 
d="M70 696h25v-696h-25v696zM84 816l-107 -78l-11 10l107 94h24l104 -92l-12 -11z" />
    <glyph glyph-name="Idieresis" unicode="&#xcf;" horiz-adv-x="165" 
d="M70 696h25v-696h-25v696zM-3 773h28v-32h-28v32zM139 773h28v-32h-28v32z" />
    <glyph glyph-name="Eth" unicode="&#xd0;" horiz-adv-x="395" 
d="M4 388h47v308h144q64 0 100 -22.5t50 -73.5q10 -36 10 -100v-151q0 -86 -0.5 -154.5t-10.5 -102.5q-9 -30 -25 -48t-36.5 -27.5t-45 -13t-51.5 -3.5h-135v366h-47v22zM328 516q0 33 -5.5 62t-19.5 50.5t-40 33.5t-66 12h-120v-286h130v-22h-130v-342h121q67 0 98.5 35
t31.5 116v341z" />
    <glyph glyph-name="Ntilde" unicode="&#xd1;" horiz-adv-x="422" 
d="M75 627v-627h-25v696h24l271 -627h3v627h24v-696h-24l-271 627h-2zM269 741q-15 0 -29.5 6t-29 13t-28 13t-27.5 6q-12 0 -24 -9.5t-22 -24.5l-16 10q25 47 63 47q16 0 30 -6t27.5 -12.5t28 -12.5t30.5 -6q32 0 50 38l16 -7q-9 -30 -29 -42.5t-40 -12.5z" />
    <glyph glyph-name="Ograve" unicode="&#xd2;" horiz-adv-x="398" 
d="M328 558q0 60 -37.5 90.5t-91.5 30.5q-56 0 -92.5 -33t-36.5 -93v-416q0 -61 36.5 -91t92.5 -30q62 0 95.5 32t33.5 93v417zM199 -7q-32 0 -60 8.5t-49 26.5t-33 45t-12 65v416q0 37 12 65t33 46.5t49 27.5t60 9t60 -8.5t49 -26t33 -44.5t12 -64v-419q0 -38 -12 -65.5
t-33 -45.5t-49 -27t-60 -9zM204 733l-134 88l25 26l120 -102z" />
    <glyph glyph-name="Oacute" unicode="&#xd3;" horiz-adv-x="398" 
d="M328 558q0 60 -37.5 90.5t-91.5 30.5q-56 0 -92.5 -33t-36.5 -93v-416q0 -61 36.5 -91t92.5 -30q62 0 95.5 32t33.5 93v417zM199 -7q-32 0 -60 8.5t-49 26.5t-33 45t-12 65v416q0 37 12 65t33 46.5t49 27.5t60 9t60 -8.5t49 -26t33 -44.5t12 -64v-419q0 -38 -12 -65.5
t-33 -45.5t-49 -27t-60 -9zM160 745l120 102l25 -26l-134 -88z" />
    <glyph glyph-name="Ocircumflex" unicode="&#xd4;" horiz-adv-x="398" 
d="M328 558q0 60 -37.5 90.5t-91.5 30.5q-56 0 -92.5 -33t-36.5 -93v-416q0 -61 36.5 -91t92.5 -30q62 0 95.5 32t33.5 93v417zM199 -7q-32 0 -60 8.5t-49 26.5t-33 45t-12 65v416q0 37 12 65t33 46.5t49 27.5t60 9t60 -8.5t49 -26t33 -44.5t12 -64v-419q0 -38 -12 -65.5
t-33 -45.5t-49 -27t-60 -9zM200 816l-107 -78l-11 10l107 94h24l104 -92l-12 -11z" />
    <glyph glyph-name="Otilde" unicode="&#xd5;" horiz-adv-x="398" 
d="M328 558q0 60 -37.5 90.5t-91.5 30.5q-56 0 -92.5 -33t-36.5 -93v-416q0 -61 36.5 -91t92.5 -30q62 0 95.5 32t33.5 93v417zM199 -7q-32 0 -60 8.5t-49 26.5t-33 45t-12 65v416q0 37 12 65t33 46.5t49 27.5t60 9t60 -8.5t49 -26t33 -44.5t12 -64v-419q0 -38 -12 -65.5
t-33 -45.5t-49 -27t-60 -9zM263 741q-15 0 -29.5 6t-29 13t-28 13t-27.5 6q-12 0 -24 -9.5t-22 -24.5l-16 10q25 47 63 47q16 0 30 -6t27.5 -12.5t28 -12.5t30.5 -6q32 0 50 38l16 -7q-9 -30 -29 -42.5t-40 -12.5z" />
    <glyph glyph-name="Odieresis" unicode="&#xd6;" horiz-adv-x="398" 
d="M328 558q0 60 -37.5 90.5t-91.5 30.5q-56 0 -92.5 -33t-36.5 -93v-416q0 -61 36.5 -91t92.5 -30q62 0 95.5 32t33.5 93v417zM199 -7q-32 0 -60 8.5t-49 26.5t-33 45t-12 65v416q0 37 12 65t33 46.5t49 27.5t60 9t60 -8.5t49 -26t33 -44.5t12 -64v-419q0 -38 -12 -65.5
t-33 -45.5t-49 -27t-60 -9zM113 773h28v-32h-28v32zM255 773h28v-32h-28v32z" />
    <glyph glyph-name="multiply" unicode="&#xd7;" horiz-adv-x="380" 
d="M56 147l-16 17l132 131l-119 119l17 17l119 -119l129 130l16 -17l-129 -129l126 -126l-17 -17l-126 126z" />
    <glyph glyph-name="Oslash" unicode="&#xd8;" horiz-adv-x="398" 
d="M199 -7q-37 0 -68.5 11.5t-52.5 34.5l-23 -54l-19 9l28 65q-19 33 -19 79v416q0 37 12 65t33 46.5t49 27.5t60 9q36 0 66.5 -10.5t52.5 -33.5l23 54l20 -9l-28 -65q20 -32 20 -79v-419q0 -38 -12 -65.5t-33 -45.5t-49 -27t-60 -9zM328 558q0 26 -8 48l-231 -541
q17 -25 45.5 -37t64.5 -12q62 0 95.5 32t33.5 93v417zM70 137q0 -13 2 -24.5t5 -21.5l229 540q-17 23 -45 35.5t-62 12.5q-56 0 -92.5 -33t-36.5 -93v-416z" />
    <glyph glyph-name="Ugrave" unicode="&#xd9;" horiz-adv-x="380" 
d="M343 695v-555q0 -38 -12 -65.5t-33 -45.5t-49 -27t-60 -9t-60 8.5t-49 26.5t-33 45t-12 65v557h25v-558q0 -61 36.5 -91t92.5 -30q62 0 95.5 32t33.5 93v554h25zM202 733l-134 88l25 26l120 -102z" />
    <glyph glyph-name="Uacute" unicode="&#xda;" horiz-adv-x="380" 
d="M343 695v-555q0 -38 -12 -65.5t-33 -45.5t-49 -27t-60 -9t-60 8.5t-49 26.5t-33 45t-12 65v557h25v-558q0 -61 36.5 -91t92.5 -30q62 0 95.5 32t33.5 93v554h25zM150 745l120 102l25 -26l-134 -88z" />
    <glyph glyph-name="Ucircumflex" unicode="&#xdb;" horiz-adv-x="380" 
d="M343 695v-555q0 -38 -12 -65.5t-33 -45.5t-49 -27t-60 -9t-60 8.5t-49 26.5t-33 45t-12 65v557h25v-558q0 -61 36.5 -91t92.5 -30q62 0 95.5 32t33.5 93v554h25zM190 816l-107 -78l-11 10l107 94h24l104 -92l-12 -11z" />
    <glyph glyph-name="Udieresis" unicode="&#xdc;" horiz-adv-x="380" 
d="M343 695v-555q0 -38 -12 -65.5t-33 -45.5t-49 -27t-60 -9t-60 8.5t-49 26.5t-33 45t-12 65v557h25v-558q0 -61 36.5 -91t92.5 -30q62 0 95.5 32t33.5 93v554h25zM107 773h28v-32h-28v32zM249 773h28v-32h-28v32z" />
    <glyph glyph-name="Yacute" unicode="&#xdd;" horiz-adv-x="337" 
d="M167 326l131 370h27l-146 -403v-293h-25v293l-146 403h25l132 -370h2zM147 745l120 102l25 -26l-134 -88z" />
    <glyph glyph-name="Thorn" unicode="&#xde;" horiz-adv-x="382" 
d="M184 555q52 0 86.5 -14.5t54 -40t27.5 -60t8 -75.5q0 -46 -9 -83t-29.5 -63.5t-54.5 -40.5t-84 -14h-106v-163h-25v695h25v-141h107zM77 533v-347h103q83 0 119.5 42.5t36.5 135.5q0 37 -7.5 68.5t-25.5 53.5t-47.5 34.5t-73.5 12.5h-105z" />
    <glyph glyph-name="germandbls" unicode="&#xdf;" horiz-adv-x="347" 
d="M227 431q26 -5 41.5 -18t24 -31t11.5 -39.5t3 -43.5v-157q0 -32 -5 -59t-17.5 -47t-34 -31.5t-55.5 -11.5h-40v22h22q61 0 82.5 33t21.5 94v164q0 48 -24.5 80t-73.5 32v26q22 0 38.5 8.5t27.5 22t17 30.5t6 34v59q0 43 -29.5 73.5t-77.5 30.5t-76.5 -30.5t-28.5 -73.5
v-598h-25v601q0 31 10.5 54t28.5 39t42 24t51 8q26 0 49.5 -8.5t41.5 -24t29 -39t11 -53.5v-61q0 -16 -3.5 -32t-12 -30.5t-22 -26t-33.5 -17.5v-3z" />
    <glyph glyph-name="agrave" unicode="&#xe0;" horiz-adv-x="334" 
d="M166 259q-51 0 -84 -30.5t-33 -102.5q0 -21 5.5 -41t18 -35t33 -24.5t50.5 -9.5q46 0 78.5 25t32.5 75v143h-101zM39 423q15 32 46 52t82 20q61 0 93.5 -27.5t32.5 -99.5v-368h-26v44h-2q-13 -17 -28 -27t-30.5 -15t-31 -6.5t-28.5 -1.5q-34 0 -57.5 11t-38 29.5t-21 43
t-6.5 51.5q0 28 6.5 55.5t22.5 49.5t42.5 35.5t66.5 13.5h105v83q0 23 -4 42.5t-15 33.5t-31 22t-52 8q-39 0 -65.5 -17t-36.5 -42zM182 556l-84 136l33 13l66 -143z" />
    <glyph glyph-name="aacute" unicode="&#xe1;" horiz-adv-x="334" 
d="M166 259q-51 0 -84 -30.5t-33 -102.5q0 -21 5.5 -41t18 -35t33 -24.5t50.5 -9.5q46 0 78.5 25t32.5 75v143h-101zM39 423q15 32 46 52t82 20q61 0 93.5 -27.5t32.5 -99.5v-368h-26v44h-2q-13 -17 -28 -27t-30.5 -15t-31 -6.5t-28.5 -1.5q-34 0 -57.5 11t-38 29.5t-21 43
t-6.5 51.5q0 28 6.5 55.5t22.5 49.5t42.5 35.5t66.5 13.5h105v83q0 23 -4 42.5t-15 33.5t-31 22t-52 8q-39 0 -65.5 -17t-36.5 -42zM157 562l66 143l33 -13l-84 -136z" />
    <glyph glyph-name="acircumflex" unicode="&#xe2;" horiz-adv-x="334" 
d="M166 259q-51 0 -84 -30.5t-33 -102.5q0 -21 5.5 -41t18 -35t33 -24.5t50.5 -9.5q46 0 78.5 25t32.5 75v143h-101zM39 423q15 32 46 52t82 20q61 0 93.5 -27.5t32.5 -99.5v-368h-26v44h-2q-13 -17 -28 -27t-30.5 -15t-31 -6.5t-28.5 -1.5q-34 0 -57.5 11t-38 29.5t-21 43
t-6.5 51.5q0 28 6.5 55.5t22.5 49.5t42.5 35.5t66.5 13.5h105v83q0 23 -4 42.5t-15 33.5t-31 22t-52 8q-39 0 -65.5 -17t-36.5 -42zM169 649l-107 -98l-11 10l107 114h24l104 -112l-12 -11z" />
    <glyph glyph-name="atilde" unicode="&#xe3;" horiz-adv-x="334" 
d="M166 259q-51 0 -84 -30.5t-33 -102.5q0 -21 5.5 -41t18 -35t33 -24.5t50.5 -9.5q46 0 78.5 25t32.5 75v143h-101zM39 423q15 32 46 52t82 20q61 0 93.5 -27.5t32.5 -99.5v-368h-26v44h-2q-13 -17 -28 -27t-30.5 -15t-31 -6.5t-28.5 -1.5q-34 0 -57.5 11t-38 29.5t-21 43
t-6.5 51.5q0 28 6.5 55.5t22.5 49.5t42.5 35.5t66.5 13.5h105v83q0 23 -4 42.5t-15 33.5t-31 22t-52 8q-39 0 -65.5 -17t-36.5 -42zM235 571q-15 0 -29.5 6t-29 13t-28 13t-27.5 6q-12 0 -24 -9.5t-22 -24.5l-16 10q25 47 63 47q16 0 30 -6t27.5 -12.5t28 -12.5t30.5 -6
q32 0 50 38l16 -7q-9 -30 -29 -42.5t-40 -12.5z" />
    <glyph glyph-name="adieresis" unicode="&#xe4;" horiz-adv-x="334" 
d="M166 259q-51 0 -84 -30.5t-33 -102.5q0 -21 5.5 -41t18 -35t33 -24.5t50.5 -9.5q46 0 78.5 25t32.5 75v143h-101zM39 423q15 32 46 52t82 20q61 0 93.5 -27.5t32.5 -99.5v-368h-26v44h-2q-13 -17 -28 -27t-30.5 -15t-31 -6.5t-28.5 -1.5q-34 0 -57.5 11t-38 29.5t-21 43
t-6.5 51.5q0 28 6.5 55.5t22.5 49.5t42.5 35.5t66.5 13.5h105v83q0 23 -4 42.5t-15 33.5t-31 22t-52 8q-39 0 -65.5 -17t-36.5 -42zM83 615h28v-32h-28v32zM225 615h28v-32h-28v32z" />
    <glyph glyph-name="aring" unicode="&#xe5;" horiz-adv-x="334" 
d="M166 259q-51 0 -84 -30.5t-33 -102.5q0 -21 5.5 -41t18 -35t33 -24.5t50.5 -9.5q46 0 78.5 25t32.5 75v143h-101zM39 423q15 32 46 52t82 20q61 0 93.5 -27.5t32.5 -99.5v-368h-26v44h-2q-13 -17 -28 -27t-30.5 -15t-31 -6.5t-28.5 -1.5q-34 0 -57.5 11t-38 29.5t-21 43
t-6.5 51.5q0 28 6.5 55.5t22.5 49.5t42.5 35.5t66.5 13.5h105v83q0 23 -4 42.5t-15 33.5t-31 22t-52 8q-39 0 -65.5 -17t-36.5 -42zM172 554q-30 0 -52 22.5t-22 54.5q0 34 22 56t52 22q32 0 54 -22t22 -56q0 -32 -22 -54.5t-54 -22.5zM172 690q-22 0 -38.5 -17t-16.5 -42
q0 -23 16.5 -40.5t38.5 -17.5q23 0 40 17.5t17 40.5q0 25 -17 42t-40 17z" />
    <glyph glyph-name="ae" unicode="&#xe6;" horiz-adv-x="563" 
d="M403 -7q-41 0 -73.5 16t-48.5 49q-18 -26 -36.5 -39t-36 -18.5t-33.5 -6t-28 -0.5q-34 0 -57.5 11t-38 29.5t-21 43t-6.5 51.5q0 28 6.5 55.5t22.5 49.5t42.5 35.5t66.5 13.5h105v83q0 23 -5 42.5t-17 33.5t-32.5 22t-52.5 8q-39 0 -63 -17t-34 -42l-24 10q15 32 43.5 52
t79.5 20q45 0 75.5 -14t44.5 -49q17 32 49.5 47.5t71.5 15.5q59 0 96.5 -31.5t37.5 -91.5v-114h-244v-141q0 -20 7.5 -38t21 -32t33.5 -22.5t46 -8.5q51 0 77.5 29.5t30.5 68.5l24 -5q-5 -56 -42.5 -86t-87.5 -30zM166 258q-51 0 -84 -30t-33 -102q0 -21 5.5 -41t18 -35
t33 -24.5t50.5 -9.5q46 0 78.5 25t32.5 75v142h-101zM511 283v88q0 43 -28 71.5t-82 28.5q-51 0 -78.5 -27.5t-29.5 -72.5v-88h218z" />
    <glyph glyph-name="ccedilla" unicode="&#xe7;" horiz-adv-x="327" 
d="M172 495q57 0 91.5 -30.5t34.5 -90.5l-26 -5q0 48 -26 75t-77 27q-28 0 -54.5 -12t-40.5 -46q-8 -19 -9.5 -67t-2.5 -109v-18q0 -18 0.5 -39t1.5 -40.5t3 -36t5 -25.5q10 -29 33.5 -45.5t61.5 -16.5q48 0 75.5 24.5t29.5 77.5l26 -5q-2 -58 -34 -87t-84 -32l-15 -61
q24 -2 39.5 -9t24.5 -17.5t13 -22t4 -21.5q0 -26 -18 -48t-56 -22q-19 0 -35.5 3t-36.5 13l9 19q16 -8 31 -10.5t27 -2.5q24 0 39 12t15 35q0 20 -16.5 34.5t-49.5 16.5l-16 11l19 69q-54 3 -80 28t-34 56q-3 12 -5 31.5t-3 41.5t-1 45v43q0 27 0.5 54.5t2 52t4 44t6.5 31.5
q12 33 42 54t82 21z" />
    <glyph glyph-name="egrave" unicode="&#xe8;" horiz-adv-x="334" 
d="M171 495q59 0 93 -31.5t34 -91.5v-127h-237v-26q0 -18 0.5 -39t1.5 -40.5t3 -36t5 -25.5q8 -25 30.5 -43.5t63.5 -18.5q26 0 45.5 8t32 21.5t19.5 31t9 37.5l24 -5q-5 -56 -41 -86t-86 -30q-30 0 -51.5 7t-36.5 19t-24 27t-13 31q-3 12 -5 31.5t-3 41.5t-1 45v43
q0 27 0.5 55t2 53t4.5 45t7 32q12 33 41.5 52.5t81.5 19.5zM73 414q-8 -20 -9.5 -57.5t-2.5 -88.5h211v103q0 43 -24 71.5t-78 28.5q-28 0 -55.5 -11.5t-41.5 -45.5zM183 556l-84 136l33 13l66 -143z" />
    <glyph glyph-name="eacute" unicode="&#xe9;" horiz-adv-x="334" 
d="M171 495q59 0 93 -31.5t34 -91.5v-127h-237v-26q0 -18 0.5 -39t1.5 -40.5t3 -36t5 -25.5q8 -25 30.5 -43.5t63.5 -18.5q26 0 45.5 8t32 21.5t19.5 31t9 37.5l24 -5q-5 -56 -41 -86t-86 -30q-30 0 -51.5 7t-36.5 19t-24 27t-13 31q-3 12 -5 31.5t-3 41.5t-1 45v43
q0 27 0.5 55t2 53t4.5 45t7 32q12 33 41.5 52.5t81.5 19.5zM73 414q-8 -20 -9.5 -57.5t-2.5 -88.5h211v103q0 43 -24 71.5t-78 28.5q-28 0 -55.5 -11.5t-41.5 -45.5zM151 562l66 143l33 -13l-84 -136z" />
    <glyph glyph-name="ecircumflex" unicode="&#xea;" horiz-adv-x="334" 
d="M171 495q59 0 93 -31.5t34 -91.5v-127h-237v-26q0 -18 0.5 -39t1.5 -40.5t3 -36t5 -25.5q8 -25 30.5 -43.5t63.5 -18.5q26 0 45.5 8t32 21.5t19.5 31t9 37.5l24 -5q-5 -56 -41 -86t-86 -30q-30 0 -51.5 7t-36.5 19t-24 27t-13 31q-3 12 -5 31.5t-3 41.5t-1 45v43
q0 27 0.5 55t2 53t4.5 45t7 32q12 33 41.5 52.5t81.5 19.5zM73 414q-8 -20 -9.5 -57.5t-2.5 -88.5h211v103q0 43 -24 71.5t-78 28.5q-28 0 -55.5 -11.5t-41.5 -45.5zM166 649l-107 -98l-11 10l107 114h24l104 -112l-12 -11z" />
    <glyph glyph-name="edieresis" unicode="&#xeb;" horiz-adv-x="334" 
d="M171 495q59 0 93 -31.5t34 -91.5v-127h-237v-26q0 -18 0.5 -39t1.5 -40.5t3 -36t5 -25.5q8 -25 30.5 -43.5t63.5 -18.5q26 0 45.5 8t32 21.5t19.5 31t9 37.5l24 -5q-5 -56 -41 -86t-86 -30q-30 0 -51.5 7t-36.5 19t-24 27t-13 31q-3 12 -5 31.5t-3 41.5t-1 45v43
q0 27 0.5 55t2 53t4.5 45t7 32q12 33 41.5 52.5t81.5 19.5zM73 414q-8 -20 -9.5 -57.5t-2.5 -88.5h211v103q0 43 -24 71.5t-78 28.5q-28 0 -55.5 -11.5t-41.5 -45.5zM79 615h28v-32h-28v32zM221 615h28v-32h-28v32z" />
    <glyph glyph-name="igrave" unicode="&#xec;" horiz-adv-x="147" 
d="M60 487h25v-487h-25v487zM63 556l-84 136l33 13l66 -143z" />
    <glyph glyph-name="iacute" unicode="&#xed;" horiz-adv-x="147" 
d="M60 487h25v-487h-25v487zM61 562l66 143l33 -13l-84 -136z" />
    <glyph glyph-name="icircumflex" unicode="&#xee;" horiz-adv-x="195" 
d="M84 487h25v-487h-25v487zM98 649l-107 -98l-11 10l107 114h24l104 -112l-12 -11z" />
    <glyph glyph-name="idieresis" unicode="&#xef;" horiz-adv-x="160" 
d="M68 487h25v-487h-25v487zM-5 615h28v-32h-28v32zM137 615h28v-32h-28v32z" />
    <glyph glyph-name="eth" unicode="&#xf0;" horiz-adv-x="344" 
d="M173 475q9 0 23.5 -2.5t29.5 -8.5t29.5 -16.5t23.5 -26.5h1l-1 64q0 32 -5 64t-16 55l-82 -55l-14 20l85 57q-9 13 -21 26t-28.5 24.5t-39 20t-53.5 12.5l5 24q65 -9 102.5 -34.5t57.5 -57.5l63 42l13 -20l-65 -44q15 -35 19.5 -76.5t4.5 -89.5v-230q0 -26 -0.5 -53.5
t-3.5 -59.5q-3 -33 -15.5 -55t-30.5 -36t-39.5 -20t-43.5 -6q-60 0 -89 23t-40 62q-3 12 -4.5 34.5t-2.5 48.5t-1 53v47q0 46 2.5 81t10.5 58q12 33 43.5 54t81.5 21zM172 451q-28 0 -56 -12.5t-42 -46.5q-4 -9 -6 -19.5t-3.5 -25.5t-2.5 -36t-1 -51v-41q0 -56 2 -89t8 -52
q10 -29 34 -45.5t66 -16.5q34 0 62 17.5t39 55.5q5 16 6.5 54.5t1.5 85.5v77q0 27 -4 53t-15.5 46.5t-32.5 33t-56 12.5z" />
    <glyph glyph-name="ntilde" unicode="&#xf1;" horiz-adv-x="353" 
d="M72 430q17 31 47 48t65 17q37 0 61.5 -11t38 -29t19 -42.5t5.5 -51.5v-361h-26v351q0 24 -4 46t-15 38t-30.5 25.5t-49.5 9.5q-28 0 -49 -11.5t-35.5 -29.5t-21.5 -41t-7 -46v-342h-25v487h25v-57h2zM234 571q-15 0 -29.5 6t-29 13t-28 13t-27.5 6q-12 0 -24 -9.5
t-22 -24.5l-16 10q25 47 63 47q16 0 30 -6t27.5 -12.5t28 -12.5t30.5 -6q32 0 50 38l16 -7q-9 -30 -29 -42.5t-40 -12.5z" />
    <glyph glyph-name="ograve" unicode="&#xf2;" horiz-adv-x="343" 
d="M172 495q55 0 82 -21t39 -51q4 -15 6.5 -36t4 -45t1.5 -49v-49v-21q0 -26 -0.5 -54t-3.5 -60q-3 -33 -15.5 -55t-30.5 -35.5t-39.5 -19.5t-43.5 -6q-60 0 -89 22.5t-40 61.5q-3 12 -4.5 31t-2.5 41t-1 45.5v43.5q0 27 0.5 55t1.5 53t3.5 45t6.5 32q12 33 42.5 52.5
t82.5 19.5zM171 471q-14 0 -28.5 -2.5t-27.5 -8.5t-24 -17t-18 -28q-9 -23 -10 -70t-2 -108v-18q0 -56 2 -89.5t8 -52.5q10 -29 34 -45t66 -16q34 0 62 17t39 55q5 16 6.5 55t1.5 86q0 23 -0.5 50t-1.5 52t-3 45t-5 31q-10 33 -37 48.5t-62 15.5zM179 556l-84 136l33 13
l66 -143z" />
    <glyph glyph-name="oacute" unicode="&#xf3;" horiz-adv-x="343" 
d="M172 495q55 0 82 -21t39 -51q4 -15 6.5 -36t4 -45t1.5 -49v-49v-21q0 -26 -0.5 -54t-3.5 -60q-3 -33 -15.5 -55t-30.5 -35.5t-39.5 -19.5t-43.5 -6q-60 0 -89 22.5t-40 61.5q-3 12 -4.5 31t-2.5 41t-1 45.5v43.5q0 27 0.5 55t1.5 53t3.5 45t6.5 32q12 33 42.5 52.5
t82.5 19.5zM171 471q-14 0 -28.5 -2.5t-27.5 -8.5t-24 -17t-18 -28q-9 -23 -10 -70t-2 -108v-18q0 -56 2 -89.5t8 -52.5q10 -29 34 -45t66 -16q34 0 62 17t39 55q5 16 6.5 55t1.5 86q0 23 -0.5 50t-1.5 52t-3 45t-5 31q-10 33 -37 48.5t-62 15.5zM152 562l66 143l33 -13
l-84 -136z" />
    <glyph glyph-name="ocircumflex" unicode="&#xf4;" horiz-adv-x="343" 
d="M172 495q55 0 82 -21t39 -51q4 -15 6.5 -36t4 -45t1.5 -49v-49v-21q0 -26 -0.5 -54t-3.5 -60q-3 -33 -15.5 -55t-30.5 -35.5t-39.5 -19.5t-43.5 -6q-60 0 -89 22.5t-40 61.5q-3 12 -4.5 31t-2.5 41t-1 45.5v43.5q0 27 0.5 55t1.5 53t3.5 45t6.5 32q12 33 42.5 52.5
t82.5 19.5zM171 471q-14 0 -28.5 -2.5t-27.5 -8.5t-24 -17t-18 -28q-9 -23 -10 -70t-2 -108v-18q0 -56 2 -89.5t8 -52.5q10 -29 34 -45t66 -16q34 0 62 17t39 55q5 16 6.5 55t1.5 86q0 23 -0.5 50t-1.5 52t-3 45t-5 31q-10 33 -37 48.5t-62 15.5zM175 649l-107 -98l-11 10
l107 114h24l104 -112l-12 -11z" />
    <glyph glyph-name="otilde" unicode="&#xf5;" horiz-adv-x="343" 
d="M172 495q55 0 82 -21t39 -51q4 -15 6.5 -36t4 -45t1.5 -49v-49v-21q0 -26 -0.5 -54t-3.5 -60q-3 -33 -15.5 -55t-30.5 -35.5t-39.5 -19.5t-43.5 -6q-60 0 -89 22.5t-40 61.5q-3 12 -4.5 31t-2.5 41t-1 45.5v43.5q0 27 0.5 55t1.5 53t3.5 45t6.5 32q12 33 42.5 52.5
t82.5 19.5zM171 471q-14 0 -28.5 -2.5t-27.5 -8.5t-24 -17t-18 -28q-9 -23 -10 -70t-2 -108v-18q0 -56 2 -89.5t8 -52.5q10 -29 34 -45t66 -16q34 0 62 17t39 55q5 16 6.5 55t1.5 86q0 23 -0.5 50t-1.5 52t-3 45t-5 31q-10 33 -37 48.5t-62 15.5zM228 571q-15 0 -29.5 6
t-29 13t-28 13t-27.5 6q-12 0 -24 -9.5t-22 -24.5l-16 10q25 47 63 47q16 0 30 -6t27.5 -12.5t28 -12.5t30.5 -6q32 0 50 38l16 -7q-9 -30 -29 -42.5t-40 -12.5z" />
    <glyph glyph-name="odieresis" unicode="&#xf6;" horiz-adv-x="343" 
d="M172 495q55 0 82 -21t39 -51q4 -15 6.5 -36t4 -45t1.5 -49v-49v-21q0 -26 -0.5 -54t-3.5 -60q-3 -33 -15.5 -55t-30.5 -35.5t-39.5 -19.5t-43.5 -6q-60 0 -89 22.5t-40 61.5q-3 12 -4.5 31t-2.5 41t-1 45.5v43.5q0 27 0.5 55t1.5 53t3.5 45t6.5 32q12 33 42.5 52.5
t82.5 19.5zM171 471q-14 0 -28.5 -2.5t-27.5 -8.5t-24 -17t-18 -28q-9 -23 -10 -70t-2 -108v-18q0 -56 2 -89.5t8 -52.5q10 -29 34 -45t66 -16q34 0 62 17t39 55q5 16 6.5 55t1.5 86q0 23 -0.5 50t-1.5 52t-3 45t-5 31q-10 33 -37 48.5t-62 15.5zM89 615h28v-32h-28v32z
M231 615h28v-32h-28v32z" />
    <glyph glyph-name="divide" unicode="&#xf7;" 
d="M170 406q-11 0 -18.5 8t-7.5 19t7.5 19t18.5 8t19 -8t8 -19t-8 -19t-19 -8zM170 116q-11 0 -18.5 8.5t-7.5 19.5t7.5 19t18.5 8t19 -8t8 -19t-8 -19.5t-19 -8.5zM19 281v24h299v-24h-299z" />
    <glyph glyph-name="oslash" unicode="&#xf8;" horiz-adv-x="343" 
d="M172 495q33 0 55.5 -8t37.5 -22l18 37l20 -10l-22 -46q4 -5 6.5 -11t5.5 -12q4 -15 6.5 -36t4 -45t1.5 -49v-49v-21q0 -26 -0.5 -54t-3.5 -60q-3 -33 -15.5 -55t-30.5 -35.5t-39.5 -19.5t-43.5 -6q-35 0 -59 8t-39 22l-17 -34l-19 11l20 41q-5 8 -8.5 16.5t-6.5 19.5
q-3 12 -4.5 31t-2.5 41t-1 45.5v43.5q0 27 0.5 55t1.5 53t3.5 45t6.5 32q12 33 42.5 52.5t82.5 19.5zM270 407q-1 2 -1.5 5t-2.5 5l-180 -369q26 -32 85 -32q34 0 62 17t39 55q5 16 6.5 55t1.5 86q0 23 -0.5 50t-1.5 52t-3 45t-5 31zM171 471q-14 0 -28.5 -2.5t-27.5 -8.5
t-24 -17t-18 -28q-9 -23 -10 -70t-2 -108v-18q0 -56 2 -89.5t8 -52.5q0 -2 2 -6l179 368q-14 17 -35 24.5t-46 7.5z" />
    <glyph glyph-name="ugrave" unicode="&#xf9;" horiz-adv-x="353" 
d="M282 57q-17 -31 -47 -48t-65 -17q-38 0 -62 11t-37.5 29t-19 42.5t-5.5 51.5v361h26v-351q0 -24 4 -46t15 -38t30.5 -25.5t49.5 -9.5q28 0 49 11.5t35 29.5t21.5 41t7.5 46v342h25v-487h-25v57h-2zM193 556l-84 136l33 13l66 -143z" />
    <glyph glyph-name="uacute" unicode="&#xfa;" horiz-adv-x="353" 
d="M282 57q-17 -31 -47 -48t-65 -17q-38 0 -62 11t-37.5 29t-19 42.5t-5.5 51.5v361h26v-351q0 -24 4 -46t15 -38t30.5 -25.5t49.5 -9.5q28 0 49 11.5t35 29.5t21.5 41t7.5 46v342h25v-487h-25v57h-2zM177 562l66 143l33 -13l-84 -136z" />
    <glyph glyph-name="ucircumflex" unicode="&#xfb;" horiz-adv-x="353" 
d="M282 57q-17 -31 -47 -48t-65 -17q-38 0 -62 11t-37.5 29t-19 42.5t-5.5 51.5v361h26v-351q0 -24 4 -46t15 -38t30.5 -25.5t49.5 -9.5q28 0 49 11.5t35 29.5t21.5 41t7.5 46v342h25v-487h-25v57h-2zM180 649l-107 -98l-11 10l107 114h24l104 -112l-12 -11z" />
    <glyph glyph-name="udieresis" unicode="&#xfc;" horiz-adv-x="353" 
d="M282 57q-17 -31 -47 -48t-65 -17q-38 0 -62 11t-37.5 29t-19 42.5t-5.5 51.5v361h26v-351q0 -24 4 -46t15 -38t30.5 -25.5t49.5 -9.5q28 0 49 11.5t35 29.5t21.5 41t7.5 46v342h25v-487h-25v57h-2zM84 615h28v-32h-28v32zM226 615h28v-32h-28v32z" />
    <glyph glyph-name="yacute" unicode="&#xfd;" horiz-adv-x="304" 
d="M151 46l122 441h26l-166 -595q-10 -39 -34.5 -66t-68.5 -27h-7v23h7q33 0 52.5 23.5t29.5 63.5l24 96l-129 482h27l115 -441h2zM138 562l66 143l33 -13l-84 -136z" />
    <glyph glyph-name="thorn" unicode="&#xfe;" horiz-adv-x="342" 
d="M178 470q-50 0 -82 -33t-32 -86v-205q0 -24 7 -47.5t21 -42t34.5 -30t47.5 -11.5q33 0 59 18.5t36 51.5q3 10 4.5 29.5t2.5 43.5t1 50v49q0 47 -1 85.5t-6 54.5q-11 41 -34.5 57t-57.5 16zM180 493q21 0 41.5 -5.5t37 -19t28 -35t14.5 -54.5q3 -32 3 -61v-55v-21
q0 -57 -0.5 -102t-11.5 -74q-5 -15 -14.5 -28.5t-23.5 -24t-34 -16.5t-47 -6q-26 0 -44 7t-30.5 17t-20 21t-12.5 19h-2v-251h-25v891h25v-259h2q17 26 45 41.5t69 15.5z" />
    <glyph glyph-name="ydieresis" unicode="&#xff;" horiz-adv-x="304" 
d="M151 46l122 441h26l-166 -595q-10 -39 -34.5 -66t-68.5 -27h-7v23h7q33 0 52.5 23.5t29.5 63.5l24 96l-129 482h27l115 -441h2zM70 615h28v-32h-28v32zM212 615h28v-32h-28v32z" />
    <glyph glyph-name="dotlessi" unicode="&#x131;" horiz-adv-x="147" 
d="M60 487h25v-487h-25v487z" />
    <glyph glyph-name="OE" unicode="&#x152;" horiz-adv-x="579" 
d="M268 696h276v-23h-251v-302h223v-23h-223v-324h251v-24h-273q-14 -4 -33.5 -5.5t-38.5 -1.5q-32 0 -60 8.5t-49 26.5t-33 45t-12 65v416q0 37 12 65t33 46.5t49 27.5t60 9q19 0 36 -1t33 -6v1zM199 679q-56 0 -92.5 -33t-36.5 -93v-416q0 -61 36.5 -91t92.5 -30
q20 0 37.5 2t31.5 7v644q-15 7 -32 8.5t-37 1.5z" />
    <glyph glyph-name="oe" unicode="&#x153;" horiz-adv-x="584" 
d="M421 495q59 0 93 -31.5t34 -91.5v-127h-237v-26q0 -18 0.5 -39t1.5 -40.5t3 -36t5 -25.5q8 -25 30.5 -43.5t63.5 -18.5q26 0 45.5 8t32 21.5t19.5 31t9 37.5l24 -5q-5 -56 -41 -86t-86 -30q-29 0 -50.5 6.5t-36.5 18t-24 26t-13 29.5q-15 -44 -50 -62t-72 -18
q-60 0 -89 22.5t-40 61.5q-3 12 -4.5 31t-2.5 41t-1 45.5v43.5q0 27 0.5 55t1.5 53t3.5 45t6.5 32q12 33 42.5 52.5t82.5 19.5q55 0 83 -22.5t40 -52.5h3q12 33 41.5 54t81.5 21zM171 471q-14 0 -28.5 -2.5t-27.5 -8.5t-24 -17t-18 -28q-9 -23 -10 -70t-2 -108v-18
q0 -56 2 -89.5t8 -52.5q10 -29 34 -45t66 -16q34 0 62 17t39 55q5 16 6.5 55t1.5 86q0 23 -0.5 50t-1.5 52t-3 45t-5 31q-10 33 -37 48.5t-62 15.5zM323 414q-8 -20 -9.5 -57.5t-2.5 -88.5h211v103q0 43 -24 71.5t-78 28.5q-28 0 -55.5 -11.5t-41.5 -45.5z" />
    <glyph glyph-name="Scaron" unicode="&#x160;" horiz-adv-x="370" 
d="M340 178q0 -42 -7.5 -76t-25 -58.5t-47 -37.5t-73.5 -13q-42 0 -70.5 11t-47 30.5t-27 45.5t-9.5 57l27 5q0 -25 7 -47.5t22 -40t39 -27.5t59 -10q41 0 65.5 13t38 35t18 51t4.5 61q0 37 -3.5 62t-16 44.5t-37 35.5t-67.5 36q-51 23 -80.5 43t-45 41t-20 43.5t-4.5 49.5
q0 37 8.5 68.5t27 54t47 35t68.5 12.5q44 0 73 -12.5t46 -32.5t24 -45t7 -50l-26 -6q0 24 -6.5 46t-21 39t-38.5 27t-59 10q-39 0 -63 -13.5t-37.5 -35t-18 -47t-4.5 -49.5q0 -27 6 -48t22 -39t44.5 -35.5t74.5 -38.5q46 -20 71.5 -39t38 -41.5t15 -50t2.5 -63.5zM286 841
l12 -11l-104 -92h-24l-107 94l11 10l107 -78z" />
    <glyph glyph-name="scaron" unicode="&#x161;" horiz-adv-x="314" 
d="M154 -7q-60 0 -95 29.5t-37 90.5l26 5q0 -48 28.5 -75.5t78.5 -26.5q58 0 81 30t23 77q0 24 -3.5 41.5t-15 31t-31.5 25.5t-53 24q-40 15 -64.5 30t-38 30.5t-18.5 32.5t-5 36q0 53 31 87t99 34q57 0 93 -30.5t36 -90.5l-26 -5q0 48 -28.5 75t-76.5 27q-30 0 -49 -8.5
t-30.5 -22t-16 -31t-4.5 -35.5t4.5 -32t17 -27t35.5 -25t59 -25q38 -14 60.5 -29t34 -32t14.5 -36.5t3 -43.5q0 -28 -7 -52t-22.5 -41.5t-40.5 -27.5t-62 -10zM266 674l12 -11l-104 -112h-24l-107 114l11 10l107 -98z" />
    <glyph glyph-name="Ydieresis" unicode="&#x178;" horiz-adv-x="337" 
d="M167 326l131 370h27l-146 -403v-293h-25v293l-146 403h25l132 -370h2zM82 773h28v-32h-28v32zM224 773h28v-32h-28v32z" />
    <glyph glyph-name="Zcaron" unicode="&#x17d;" horiz-adv-x="296" 
d="M267 24v-24h-259v23l249 650h-225v23h250v-22l-249 -650h234zM266 841l12 -11l-104 -92h-24l-107 94l11 10l107 -78z" />
    <glyph glyph-name="zcaron" unicode="&#x17e;" horiz-adv-x="269" 
d="M10 22l221 442h-198v22h226v-21l-221 -443h214v-22h-242v22zM252 674l12 -11l-104 -112h-24l-107 114l11 10l107 -98z" />
    <glyph glyph-name="florin" unicode="&#x192;" 
d="M-13 -68q13 -3 29 -3q22 0 40 7t32 25t23.5 47.5t15.5 74.5l36 295h-81v23h83l17 146q10 79 40 117t90 38q17 0 40 -5l-7 -23q-18 5 -33 5q-17 0 -33.5 -5t-30.5 -20t-25 -41.5t-16 -69.5l-16 -142h97v-23h-100l-34 -292q-12 -95 -45 -138t-93 -43q-18 0 -36 3z" />
    <glyph glyph-name="circumflex" unicode="&#x2c6;" horiz-adv-x="333" 
d="M166 649l-107 -98l-11 10l107 114h24l104 -112l-12 -11z" />
    <glyph glyph-name="tilde" unicode="&#x2dc;" horiz-adv-x="362" 
d="M234 571q-15 0 -29.5 6t-29 13t-28 13t-27.5 6q-12 0 -24 -9.5t-22 -24.5l-16 10q25 47 63 47q16 0 30 -6t27.5 -12.5t28 -12.5t30.5 -6q32 0 50 38l16 -7q-9 -30 -29 -42.5t-40 -12.5z" />
    <glyph glyph-name="endash" unicode="&#x2013;" horiz-adv-x="357" 
d="M20 272h320v-26h-320v26z" />
    <glyph glyph-name="emdash" unicode="&#x2014;" horiz-adv-x="578" 
d="M20 272h541v-26h-541v26z" />
    <glyph glyph-name="quoteleft" unicode="&#x2018;" horiz-adv-x="131" 
d="M70 701h18l-17 -82h9v-36h-36v36z" />
    <glyph glyph-name="quoteright" unicode="&#x2019;" horiz-adv-x="131" 
d="M62 583h-18l17 82h-9v36h36v-36z" />
    <glyph glyph-name="quotesinglbase" unicode="&#x201a;" horiz-adv-x="107" 
d="M48 -82h-18l17 82h-9v36h36v-36z" />
    <glyph glyph-name="quotedblleft" unicode="&#x201c;" horiz-adv-x="201" 
d="M60 701h18l-17 -82h9v-36h-36v36zM138 701h18l-17 -82h9v-36h-36v36z" />
    <glyph glyph-name="quotedblright" unicode="&#x201d;" horiz-adv-x="201" 
d="M130 583h-18l17 82h-9v36h36v-36zM52 583h-18l17 82h-9v36h36v-36z" />
    <glyph glyph-name="quotedblbase" unicode="&#x201e;" horiz-adv-x="185" 
d="M126 -82h-18l17 82h-9v36h36v-36zM48 -82h-18l17 82h-9v36h36v-36z" />
    <glyph glyph-name="dagger" unicode="&#x2020;" horiz-adv-x="321" 
d="M172 -198h-29v622h-141v26h141v246h29v-246h142v-26h-142v-622z" />
    <glyph glyph-name="daggerdbl" unicode="&#x2021;" horiz-adv-x="321" 
d="M143 424h-141v26h141v246h29v-246h142v-26h-142v-229h142v-26h-142v-367h-29v367h-141v26h141v229z" />
    <glyph glyph-name="bullet" unicode="&#x2022;" horiz-adv-x="328" 
d="M167 187q-30 0 -51 21.5t-21 51.5q0 31 21 52.5t51 21.5q29 0 50 -21.5t21 -52.5t-21 -52t-50 -21z" />
    <glyph glyph-name="ellipsis" unicode="&#x2026;" horiz-adv-x="513" 
d="M36 0v38h36v-38h-36zM228 0v38h36v-38h-36zM428 0v38h36v-38h-36z" />
    <glyph glyph-name="perthousand" unicode="&#x2030;" horiz-adv-x="728" 
d="M464 347q0 23 -16 36t-42 13q-27 0 -43 -13t-16 -36v-279q0 -22 16 -35t43 -13q26 0 42 13t16 35v279zM406 -4q-34 0 -59 17.5t-25 54.5v279q0 38 25 55t59 17q33 0 58 -17t25 -55v-279q0 -37 -25 -54.5t-58 -17.5zM175 627q0 23 -16 36t-42 13q-27 0 -43 -13t-16 -36
v-279q0 -22 16 -35t43 -13q26 0 42 13t16 35v279zM117 276q-34 0 -59 17.5t-25 54.5v279q0 38 25 55t59 17q33 0 58 -17t25 -55v-279q0 -37 -25 -54.5t-58 -17.5zM103 -17h-25l314 731h25zM668 347q0 23 -16 36t-42 13q-27 0 -43 -13t-16 -36v-279q0 -22 16 -35t43 -13
q26 0 42 13t16 35v279zM610 -4q-34 0 -59 17.5t-25 54.5v279q0 38 25 55t59 17q33 0 58 -17t25 -55v-279q0 -37 -25 -54.5t-58 -17.5z" />
    <glyph glyph-name="guilsinglleft" unicode="&#x2039;" horiz-adv-x="188" 
d="M141 46l-107 186l107 186h27l-106 -186l106 -186h-27z" />
    <glyph glyph-name="guilsinglright" unicode="&#x203a;" horiz-adv-x="188" 
d="M34 46l106 186l-106 186h27l107 -186l-107 -186h-27z" />
    <glyph glyph-name="Euro" unicode="&#x20ac;" 
d="M15 321h38v77h-38v21h38v145q0 37 12 63.5t31.5 43t44 24t50.5 7.5q25 0 48.5 -6.5t42.5 -20.5t32 -36t16 -53l-24 -6q-3 25 -13 44t-26 31t-35.5 18t-40.5 6q-48 0 -81 -28t-33 -88v-144h187v-21h-187v-77h187v-21h-187v-171q0 -30 9.5 -51.5t25 -35t36 -20t43.5 -6.5
q21 0 41 5.5t35.5 17.5t25.5 30.5t13 44.5l26 -5q-3 -32 -16.5 -54t-33 -36t-43.5 -20t-48 -6q-26 0 -50.5 7.5t-44 23.5t-31.5 42t-12 64v170h-38v21z" />
    <glyph glyph-name="trademark" unicode="&#x2122;" horiz-adv-x="574" 
d="M502 630l-110 -253h-15l-111 260h-3v-317h-21v375h21l122 -286l122 286h19v-375h-21v310h-3zM127 320h-22v353h-84v23h190v-23h-84v-353z" />
    <glyph glyph-name="carriagereturn" unicode="&#x21b5;" horiz-adv-x="840" 
d="M774 692h31v-387h-615l173 -171l-21 -20l-204 205l205 207l20 -20l-173 -172h584v358z" />
    </font>
</defs>
</svg>
